<svg xmlns="http://www.w3.org/2000/svg" xmlns:xlink="http://www.w3.org/1999/xlink" contentStyleType="text/css" data-diagram-type="ACTIVITY" height="1339px" preserveAspectRatio="none" style="width:967px;height:1339px;background:#FFFFFF;" version="1.1" viewBox="0 0 967 1339" width="967px" zoomAndPan="magnify"><defs/><g><ellipse cx="565.6021" cy="15" fill="#FFFFFF" rx="10" ry="10" style="stroke:#000000;stroke-width:1;"/><rect fill="#FFFFFF" height="33.9688" rx="12.5" ry="12.5" style="stroke:#000000;stroke-width:1;" width="201.3594" x="464.9224" y="45"/><text fill="#000000" font-family="Verdana" font-size="12" lengthAdjust="spacing" textLength="181.3594" x="474.9224" y="66.1387">Proprietário acessa formulário</text><rect fill="#FFFFFF" height="33.9688" rx="12.5" ry="12.5" style="stroke:#000000;stroke-width:1;" width="231.5527" x="449.8257" y="98.9688"/><text fill="#000000" font-family="Verdana" font-size="12" lengthAdjust="spacing" textLength="211.5527" x="459.8257" y="120.1074">Sistema exibe campos obrigatórios</text><rect fill="#FFFFFF" height="33.9688" rx="12.5" ry="12.5" style="stroke:#000000;stroke-width:1;" width="277.2148" x="426.9946" y="152.9375"/><text fill="#000000" font-family="Verdana" font-size="12" lengthAdjust="spacing" textLength="257.2148" x="436.9946" y="174.0762">Proprietário preenche informações básicas</text><polygon fill="#FFFFFF" points="494.7036,206.9063,636.5005,206.9063,648.5005,218.9063,636.5005,230.9063,494.7036,230.9063,482.7036,218.9063,494.7036,206.9063" style="stroke:#000000;stroke-width:1;"/><text fill="#000000" font-family="Verdana" font-size="11" lengthAdjust="spacing" textLength="141.7969" x="494.7036" y="222.7144">Tipo de estabelecimento?</text><rect fill="#FFFFFF" height="33.9688" rx="12.5" ry="12.5" style="stroke:#000000;stroke-width:1;" width="246.3887" x="169.4946" y="266.5156"/><text fill="#000000" font-family="Verdana" font-size="12" lengthAdjust="spacing" textLength="226.3887" x="179.4946" y="287.6543">Adicionar informações gastronômicas</text><rect fill="#FFFFFF" height="33.9688" rx="12.5" ry="12.5" style="stroke:#000000;stroke-width:1;" width="186.1016" x="199.6382" y="320.4844"/><text fill="#000000" font-family="Verdana" font-size="12" lengthAdjust="spacing" textLength="166.1016" x="209.6382" y="341.623">Especificar tipo de culinária</text><rect fill="#FFFFFF" height="33.9688" rx="12.5" ry="12.5" style="stroke:#000000;stroke-width:1;" width="176.6152" x="204.3813" y="374.4531"/><text fill="#000000" font-family="Verdana" font-size="12" lengthAdjust="spacing" textLength="156.6152" x="214.3813" y="395.5918">Incluir cardápio (opcional)</text><rect fill="#FFFFFF" height="33.9688" rx="12.5" ry="12.5" style="stroke:#000000;stroke-width:1;" width="254.6855" x="435.8833" y="266.5156"/><text fill="#000000" font-family="Verdana" font-size="12" lengthAdjust="spacing" textLength="234.6855" x="445.8833" y="287.6543">Adicionar informações de hospedagem</text><rect fill="#FFFFFF" height="33.9688" rx="12.5" ry="12.5" style="stroke:#000000;stroke-width:1;" width="169.168" x="478.6421" y="320.4844"/><text fill="#000000" font-family="Verdana" font-size="12" lengthAdjust="spacing" textLength="149.168" x="488.6421" y="341.623">Especificar comodidades</text><rect fill="#FFFFFF" height="33.9688" rx="12.5" ry="12.5" style="stroke:#000000;stroke-width:1;" width="165.2773" x="480.5874" y="374.4531"/><text fill="#000000" font-family="Verdana" font-size="12" lengthAdjust="spacing" textLength="145.2773" x="490.5874" y="395.5918">Incluir fotos dos quartos</text><rect fill="#FFFFFF" height="33.9688" rx="12.5" ry="12.5" style="stroke:#000000;stroke-width:1;" width="209.7324" x="731.2729" y="266.5156"/><text fill="#000000" font-family="Verdana" font-size="12" lengthAdjust="spacing" textLength="189.7324" x="741.2729" y="287.6543">Adicionar informações culturais</text><rect fill="#FFFFFF" height="33.9688" rx="12.5" ry="12.5" style="stroke:#000000;stroke-width:1;" width="251.1406" x="710.5688" y="320.4844"/><text fill="#000000" font-family="Verdana" font-size="12" lengthAdjust="spacing" textLength="231.1406" x="720.5688" y="341.623">Especificar horários de funcionamento</text><rect fill="#FFFFFF" height="33.9688" rx="12.5" ry="12.5" style="stroke:#000000;stroke-width:1;" width="170.4688" x="750.9048" y="374.4531"/><text fill="#000000" font-family="Verdana" font-size="12" lengthAdjust="spacing" textLength="150.4688" x="760.9048" y="395.5918">Incluir preços de entrada</text><polygon fill="#FFFFFF" points="565.6021,428.4219,565.6021,428.4219,577.6021,440.4219,565.6021,452.4219,565.6021,452.4219,553.6021,440.4219,565.6021,428.4219" style="stroke:#000000;stroke-width:1;"/><rect fill="#FFFFFF" height="33.9688" rx="12.5" ry="12.5" style="stroke:#000000;stroke-width:1;" width="202.9707" x="464.1167" y="472.4219"/><text fill="#000000" font-family="Verdana" font-size="12" lengthAdjust="spacing" textLength="182.9707" x="474.1167" y="493.5605">Adicionar localização no mapa</text><polygon fill="#FFFFFF" points="509.1143,526.3906,622.0898,526.3906,634.0898,538.3906,622.0898,550.3906,509.1143,550.3906,497.1143,538.3906,509.1143,526.3906" style="stroke:#000000;stroke-width:1;"/><text fill="#000000" font-family="Verdana" font-size="11" lengthAdjust="spacing" textLength="112.9756" x="509.1143" y="542.1987">Localização precisa?</text><text fill="#000000" font-family="Verdana" font-size="11" lengthAdjust="spacing" textLength="19.5024" x="477.6118" y="535.7964">sim</text><text fill="#000000" font-family="Verdana" font-size="11" lengthAdjust="spacing" textLength="20.4424" x="634.0898" y="535.7964">não</text><rect fill="#FFFFFF" height="33.9688" rx="12.5" ry="12.5" style="stroke:#000000;stroke-width:1;" width="139.8535" x="290.6201" y="560.3906"/><text fill="#000000" font-family="Verdana" font-size="12" lengthAdjust="spacing" textLength="119.8535" x="300.6201" y="581.5293">Confirmar endereço</text><rect fill="#FFFFFF" height="33.9688" rx="12.5" ry="12.5" style="stroke:#000000;stroke-width:1;" width="257.0293" x="232.0322" y="614.3594"/><text fill="#000000" font-family="Verdana" font-size="12" lengthAdjust="spacing" textLength="237.0293" x="242.0322" y="635.498">Upload de documentos comprobatórios</text><polygon fill="#FFFFFF" points="301.7522,668.3281,419.3416,668.3281,431.3416,680.3281,419.3416,692.3281,301.7522,692.3281,289.7522,680.3281,301.7522,668.3281" style="stroke:#000000;stroke-width:1;"/><text fill="#000000" font-family="Verdana" font-size="11" lengthAdjust="spacing" textLength="117.5894" x="301.7522" y="684.1362">Documentos válidos?</text><text fill="#000000" font-family="Verdana" font-size="11" lengthAdjust="spacing" textLength="19.5024" x="270.2498" y="677.7339">sim</text><text fill="#000000" font-family="Verdana" font-size="11" lengthAdjust="spacing" textLength="20.4424" x="431.3416" y="677.7339">não</text><rect fill="#FFFFFF" height="33.9688" rx="12.5" ry="12.5" style="stroke:#000000;stroke-width:1;" width="232.6602" x="83.9814" y="702.3281"/><text fill="#000000" font-family="Verdana" font-size="12" lengthAdjust="spacing" textLength="212.6602" x="93.9814" y="723.4668">Adicionar fotos do estabelecimento</text><rect fill="#FFFFFF" height="33.9688" rx="12.5" ry="12.5" style="stroke:#000000;stroke-width:1;" width="196.3438" x="102.1396" y="804.6992"/><text fill="#000000" font-family="Verdana" font-size="12" lengthAdjust="spacing" textLength="176.3438" x="112.1396" y="825.8379">Incluir informações históricas</text><rect fill="#FFFFFF" height="33.9688" rx="12.5" ry="12.5" style="stroke:#000000;stroke-width:1;" width="226.2793" x="87.1719" y="873.668"/><text fill="#000000" font-family="Verdana" font-size="12" lengthAdjust="spacing" textLength="206.2793" x="97.1719" y="894.8066">Upload de fotos antigas (opcional)</text><polygon fill="#FFFFFF" points="126.1099,756.2969,274.5132,756.2969,286.5132,768.2969,274.5132,780.2969,126.1099,780.2969,114.1099,768.2969,126.1099,756.2969" style="stroke:#000000;stroke-width:1;"/><text fill="#000000" font-family="Verdana" font-size="11" lengthAdjust="spacing" textLength="19.5024" x="204.3115" y="790.5073">sim</text><text fill="#000000" font-family="Verdana" font-size="11" lengthAdjust="spacing" textLength="148.4033" x="126.1099" y="772.105">Estabelecimento histórico?</text><polygon fill="#FFFFFF" points="200.3115,927.6367,212.3115,939.6367,200.3115,951.6367,188.3115,939.6367,200.3115,927.6367" style="stroke:#000000;stroke-width:1;"/><rect fill="#FFFFFF" height="33.9688" rx="12.5" ry="12.5" style="stroke:#000000;stroke-width:1;" width="220.0625" x="90.2803" y="971.6367"/><text fill="#000000" font-family="Verdana" font-size="12" lengthAdjust="spacing" textLength="200.0625" x="100.2803" y="992.7754">Revisar informações preenchidas</text><polygon fill="#FFFFFF" points="138.9199,1025.6055,261.7031,1025.6055,273.7031,1037.6055,261.7031,1049.6055,138.9199,1049.6055,126.9199,1037.6055,138.9199,1025.6055" style="stroke:#000000;stroke-width:1;"/><text fill="#000000" font-family="Verdana" font-size="11" lengthAdjust="spacing" textLength="122.7832" x="138.9199" y="1041.4136">Informações corretas?</text><text fill="#000000" font-family="Verdana" font-size="11" lengthAdjust="spacing" textLength="19.5024" x="107.4175" y="1035.0112">sim</text><text fill="#000000" font-family="Verdana" font-size="11" lengthAdjust="spacing" textLength="20.4424" x="273.7031" y="1035.0112">não</text><rect fill="#FFFFFF" height="33.9688" rx="12.5" ry="12.5" style="stroke:#000000;stroke-width:1;" width="171.207" x="18.7529" y="1059.6055"/><text fill="#000000" font-family="Verdana" font-size="12" lengthAdjust="spacing" textLength="151.207" x="28.7529" y="1080.7441">Submeter para validação</text><rect fill="#FFFFFF" height="33.9688" rx="12.5" ry="12.5" style="stroke:#000000;stroke-width:1;" width="196.7129" x="6" y="1113.5742"/><text fill="#000000" font-family="Verdana" font-size="12" lengthAdjust="spacing" textLength="176.7129" x="16" y="1134.7129">Enviar confirmação por email</text><rect fill="#FFFFFF" height="33.9688" rx="12.5" ry="12.5" style="stroke:#000000;stroke-width:1;" width="174.2246" x="17.2441" y="1167.543"/><text fill="#000000" font-family="Verdana" font-size="12" lengthAdjust="spacing" textLength="154.2246" x="27.2441" y="1188.6816">Informar prazo de análise</text><rect fill="#FFFFFF" height="33.9688" rx="12.5" ry="12.5" style="stroke:#000000;stroke-width:1;" width="147.1074" x="222.7129" y="1059.6055"/><text fill="#000000" font-family="Verdana" font-size="12" lengthAdjust="spacing" textLength="127.1074" x="232.7129" y="1080.7441">Retornar para edição</text><polygon fill="#FFFFFF" points="200.3115,1207.5117,212.3115,1219.5117,200.3115,1231.5117,188.3115,1219.5117,200.3115,1207.5117" style="stroke:#000000;stroke-width:1;"/><rect fill="#FFFFFF" height="33.9688" rx="12.5" ry="12.5" style="stroke:#000000;stroke-width:1;" width="241.9238" x="399.8203" y="702.3281"/><text fill="#000000" font-family="Verdana" font-size="12" lengthAdjust="spacing" textLength="221.9238" x="409.8203" y="723.4668">Informar problemas nos documentos</text><rect fill="#FFFFFF" height="33.9688" rx="12.5" ry="12.5" style="stroke:#000000;stroke-width:1;" width="117.4473" x="462.0586" y="756.2969"/><text fill="#000000" font-family="Verdana" font-size="12" lengthAdjust="spacing" textLength="97.4473" x="472.0586" y="777.4355">Solicitar reenvio</text><polygon fill="#FFFFFF" points="360.5469,1237.5117,372.5469,1249.5117,360.5469,1261.5117,348.5469,1249.5117,360.5469,1237.5117" style="stroke:#000000;stroke-width:1;"/><rect fill="#FFFFFF" height="33.9688" rx="12.5" ry="12.5" style="stroke:#000000;stroke-width:1;" width="197.8262" x="671.7441" y="560.3906"/><text fill="#000000" font-family="Verdana" font-size="12" lengthAdjust="spacing" textLength="177.8262" x="681.7441" y="581.5293">Solicitar ajuste na localização</text><rect fill="#FFFFFF" height="33.9688" rx="12.5" ry="12.5" style="stroke:#000000;stroke-width:1;" width="195.2891" x="673.0127" y="614.3594"/><text fill="#000000" font-family="Verdana" font-size="12" lengthAdjust="spacing" textLength="175.2891" x="683.0127" y="635.498">Oferecer busca por endereço</text><polygon fill="#FFFFFF" points="565.6021,1267.5117,577.6021,1279.5117,565.6021,1291.5117,553.6021,1279.5117,565.6021,1267.5117" style="stroke:#000000;stroke-width:1;"/><ellipse cx="565.6021" cy="1322.5117" fill="none" rx="11" ry="11" style="stroke:#000000;stroke-width:1;"/><ellipse cx="565.6021" cy="1322.5117" fill="#FFFFFF" rx="6" ry="6" style="stroke:#000000;stroke-width:1;"/><line style="stroke:#000000;stroke-width:1;" x1="565.6021" x2="565.6021" y1="25" y2="45"/><polygon fill="#000000" points="561.6021,35,565.6021,45,569.6021,35,565.6021,39" style="stroke:#000000;stroke-width:1;"/><line style="stroke:#000000;stroke-width:1;" x1="565.6021" x2="565.6021" y1="78.9688" y2="98.9688"/><polygon fill="#000000" points="561.6021,88.9688,565.6021,98.9688,569.6021,88.9688,565.6021,92.9688" style="stroke:#000000;stroke-width:1;"/><line style="stroke:#000000;stroke-width:1;" x1="565.6021" x2="565.6021" y1="132.9375" y2="152.9375"/><polygon fill="#000000" points="561.6021,142.9375,565.6021,152.9375,569.6021,142.9375,565.6021,146.9375" style="stroke:#000000;stroke-width:1;"/><line style="stroke:#000000;stroke-width:1;" x1="292.689" x2="292.689" y1="300.4844" y2="320.4844"/><polygon fill="#000000" points="288.689,310.4844,292.689,320.4844,296.689,310.4844,292.689,314.4844" style="stroke:#000000;stroke-width:1;"/><line style="stroke:#000000;stroke-width:1;" x1="292.689" x2="292.689" y1="354.4531" y2="374.4531"/><polygon fill="#000000" points="288.689,364.4531,292.689,374.4531,296.689,364.4531,292.689,368.4531" style="stroke:#000000;stroke-width:1;"/><line style="stroke:#000000;stroke-width:1;" x1="563.2261" x2="563.2261" y1="300.4844" y2="320.4844"/><polygon fill="#000000" points="559.2261,310.4844,563.2261,320.4844,567.2261,310.4844,563.2261,314.4844" style="stroke:#000000;stroke-width:1;"/><line style="stroke:#000000;stroke-width:1;" x1="563.2261" x2="563.2261" y1="354.4531" y2="374.4531"/><polygon fill="#000000" points="559.2261,364.4531,563.2261,374.4531,567.2261,364.4531,563.2261,368.4531" style="stroke:#000000;stroke-width:1;"/><line style="stroke:#000000;stroke-width:1;" x1="836.1392" x2="836.1392" y1="300.4844" y2="320.4844"/><polygon fill="#000000" points="832.1392,310.4844,836.1392,320.4844,840.1392,310.4844,836.1392,314.4844" style="stroke:#000000;stroke-width:1;"/><line style="stroke:#000000;stroke-width:1;" x1="836.1392" x2="836.1392" y1="354.4531" y2="374.4531"/><polygon fill="#000000" points="832.1392,364.4531,836.1392,374.4531,840.1392,364.4531,836.1392,368.4531" style="stroke:#000000;stroke-width:1;"/><line style="stroke:#000000;stroke-width:1;" x1="482.7036" x2="292.689" y1="218.9063" y2="218.9063"/><line style="stroke:#000000;stroke-width:1;" x1="292.689" x2="292.689" y1="218.9063" y2="266.5156"/><polygon fill="#000000" points="288.689,256.5156,292.689,266.5156,296.689,256.5156,292.689,260.5156" style="stroke:#000000;stroke-width:1;"/><text fill="#000000" font-family="Verdana" font-size="11" lengthAdjust="spacing" textLength="89.998" x="292.689" y="246.519">Restaurante/Bar</text><line style="stroke:#000000;stroke-width:1;" x1="648.5005" x2="836.1392" y1="218.9063" y2="218.9063"/><line style="stroke:#000000;stroke-width:1;" x1="836.1392" x2="836.1392" y1="218.9063" y2="266.5156"/><polygon fill="#000000" points="832.1392,256.5156,836.1392,266.5156,840.1392,256.5156,836.1392,260.5156" style="stroke:#000000;stroke-width:1;"/><text fill="#000000" font-family="Verdana" font-size="11" lengthAdjust="spacing" textLength="90.8682" x="836.1392" y="246.519">Atração turística</text><line style="stroke:#000000;stroke-width:1;" x1="565.6021" x2="565.6021" y1="230.9063" y2="242.776"/><line style="stroke:#000000;stroke-width:1;" x1="565.6021" x2="563.2261" y1="242.776" y2="242.776"/><line style="stroke:#000000;stroke-width:1;" x1="563.2261" x2="563.2261" y1="242.776" y2="266.5156"/><polygon fill="#000000" points="559.2261,256.5156,563.2261,266.5156,567.2261,256.5156,563.2261,260.5156" style="stroke:#000000;stroke-width:1;"/><text fill="#000000" font-family="Verdana" font-size="11" lengthAdjust="spacing" textLength="79.374" x="563.2261" y="247.519">Hotel/Pousada</text><line style="stroke:#000000;stroke-width:1;" x1="292.689" x2="292.689" y1="408.4219" y2="440.4219"/><line style="stroke:#000000;stroke-width:1;" x1="292.689" x2="553.6021" y1="440.4219" y2="440.4219"/><polygon fill="#000000" points="543.6021,436.4219,553.6021,440.4219,543.6021,444.4219,547.6021,440.4219" style="stroke:#000000;stroke-width:1;"/><line style="stroke:#000000;stroke-width:1;" x1="836.1392" x2="836.1392" y1="408.4219" y2="440.4219"/><line style="stroke:#000000;stroke-width:1;" x1="836.1392" x2="577.6021" y1="440.4219" y2="440.4219"/><polygon fill="#000000" points="587.6021,436.4219,577.6021,440.4219,587.6021,444.4219,583.6021,440.4219" style="stroke:#000000;stroke-width:1;"/><line style="stroke:#000000;stroke-width:1;" x1="563.2261" x2="563.2261" y1="408.4219" y2="413.4219"/><line style="stroke:#000000;stroke-width:1;" x1="563.2261" x2="565.6021" y1="413.4219" y2="413.4219"/><line style="stroke:#000000;stroke-width:1;" x1="565.6021" x2="565.6021" y1="413.4219" y2="428.4219"/><polygon fill="#000000" points="561.6021,418.4219,565.6021,428.4219,569.6021,418.4219,565.6021,422.4219" style="stroke:#000000;stroke-width:1;"/><line style="stroke:#000000;stroke-width:1;" x1="565.6021" x2="565.6021" y1="186.9063" y2="206.9063"/><polygon fill="#000000" points="561.6021,196.9063,565.6021,206.9063,569.6021,196.9063,565.6021,200.9063" style="stroke:#000000;stroke-width:1;"/><line style="stroke:#000000;stroke-width:1;" x1="565.6021" x2="565.6021" y1="452.4219" y2="472.4219"/><polygon fill="#000000" points="561.6021,462.4219,565.6021,472.4219,569.6021,462.4219,565.6021,466.4219" style="stroke:#000000;stroke-width:1;"/><line style="stroke:#000000;stroke-width:1;" x1="360.5469" x2="360.5469" y1="594.3594" y2="614.3594"/><polygon fill="#000000" points="356.5469,604.3594,360.5469,614.3594,364.5469,604.3594,360.5469,608.3594" style="stroke:#000000;stroke-width:1;"/><line style="stroke:#000000;stroke-width:1;" x1="200.3115" x2="200.3115" y1="838.668" y2="873.668"/><polygon fill="#000000" points="196.3115,863.668,200.3115,873.668,204.3115,863.668,200.3115,867.668" style="stroke:#000000;stroke-width:1;"/><line style="stroke:#000000;stroke-width:1;" x1="200.3115" x2="200.3115" y1="780.2969" y2="804.6992"/><polygon fill="#000000" points="196.3115,794.6992,200.3115,804.6992,204.3115,794.6992,200.3115,798.6992" style="stroke:#000000;stroke-width:1;"/><line style="stroke:#000000;stroke-width:1;" x1="286.5132" x2="323.4512" y1="768.2969" y2="768.2969"/><polygon fill="#000000" points="319.4512,846.168,323.4512,856.168,327.4512,846.168,323.4512,850.168" style="stroke:#000000;stroke-width:1;"/><line style="stroke:#000000;stroke-width:1;" x1="323.4512" x2="323.4512" y1="768.2969" y2="939.6367"/><line style="stroke:#000000;stroke-width:1;" x1="323.4512" x2="212.3115" y1="939.6367" y2="939.6367"/><polygon fill="#000000" points="222.3115,935.6367,212.3115,939.6367,222.3115,943.6367,218.3115,939.6367" style="stroke:#000000;stroke-width:1;"/><line style="stroke:#000000;stroke-width:1;" x1="200.3115" x2="200.3115" y1="907.6367" y2="927.6367"/><polygon fill="#000000" points="196.3115,917.6367,200.3115,927.6367,204.3115,917.6367,200.3115,921.6367" style="stroke:#000000;stroke-width:1;"/><line style="stroke:#000000;stroke-width:1;" x1="200.3115" x2="200.3115" y1="736.2969" y2="756.2969"/><polygon fill="#000000" points="196.3115,746.2969,200.3115,756.2969,204.3115,746.2969,200.3115,750.2969" style="stroke:#000000;stroke-width:1;"/><line style="stroke:#000000;stroke-width:1;" x1="200.3115" x2="200.3115" y1="951.6367" y2="971.6367"/><polygon fill="#000000" points="196.3115,961.6367,200.3115,971.6367,204.3115,961.6367,200.3115,965.6367" style="stroke:#000000;stroke-width:1;"/><line style="stroke:#000000;stroke-width:1;" x1="104.3564" x2="104.3564" y1="1093.5742" y2="1113.5742"/><polygon fill="#000000" points="100.3564,1103.5742,104.3564,1113.5742,108.3564,1103.5742,104.3564,1107.5742" style="stroke:#000000;stroke-width:1;"/><line style="stroke:#000000;stroke-width:1;" x1="104.3564" x2="104.3564" y1="1147.543" y2="1167.543"/><polygon fill="#000000" points="100.3564,1157.543,104.3564,1167.543,108.3564,1157.543,104.3564,1161.543" style="stroke:#000000;stroke-width:1;"/><line style="stroke:#000000;stroke-width:1;" x1="126.9199" x2="104.3564" y1="1037.6055" y2="1037.6055"/><line style="stroke:#000000;stroke-width:1;" x1="104.3564" x2="104.3564" y1="1037.6055" y2="1059.6055"/><polygon fill="#000000" points="100.3564,1049.6055,104.3564,1059.6055,108.3564,1049.6055,104.3564,1053.6055" style="stroke:#000000;stroke-width:1;"/><line style="stroke:#000000;stroke-width:1;" x1="273.7031" x2="296.2666" y1="1037.6055" y2="1037.6055"/><line style="stroke:#000000;stroke-width:1;" x1="296.2666" x2="296.2666" y1="1037.6055" y2="1059.6055"/><polygon fill="#000000" points="292.2666,1049.6055,296.2666,1059.6055,300.2666,1049.6055,296.2666,1053.6055" style="stroke:#000000;stroke-width:1;"/><line style="stroke:#000000;stroke-width:1;" x1="104.3564" x2="104.3564" y1="1201.5117" y2="1219.5117"/><line style="stroke:#000000;stroke-width:1;" x1="104.3564" x2="188.3115" y1="1219.5117" y2="1219.5117"/><polygon fill="#000000" points="178.3115,1215.5117,188.3115,1219.5117,178.3115,1223.5117,182.3115,1219.5117" style="stroke:#000000;stroke-width:1;"/><line style="stroke:#000000;stroke-width:1;" x1="296.2666" x2="296.2666" y1="1093.5742" y2="1219.5117"/><line style="stroke:#000000;stroke-width:1;" x1="296.2666" x2="212.3115" y1="1219.5117" y2="1219.5117"/><polygon fill="#000000" points="222.3115,1215.5117,212.3115,1219.5117,222.3115,1223.5117,218.3115,1219.5117" style="stroke:#000000;stroke-width:1;"/><line style="stroke:#000000;stroke-width:1;" x1="200.3115" x2="200.3115" y1="1005.6055" y2="1025.6055"/><polygon fill="#000000" points="196.3115,1015.6055,200.3115,1025.6055,204.3115,1015.6055,200.3115,1019.6055" style="stroke:#000000;stroke-width:1;"/><line style="stroke:#000000;stroke-width:1;" x1="520.7822" x2="520.7822" y1="736.2969" y2="756.2969"/><polygon fill="#000000" points="516.7822,746.2969,520.7822,756.2969,524.7822,746.2969,520.7822,750.2969" style="stroke:#000000;stroke-width:1;"/><line style="stroke:#000000;stroke-width:1;" x1="289.7522" x2="200.3115" y1="680.3281" y2="680.3281"/><line style="stroke:#000000;stroke-width:1;" x1="200.3115" x2="200.3115" y1="680.3281" y2="702.3281"/><polygon fill="#000000" points="196.3115,692.3281,200.3115,702.3281,204.3115,692.3281,200.3115,696.3281" style="stroke:#000000;stroke-width:1;"/><line style="stroke:#000000;stroke-width:1;" x1="431.3416" x2="520.7822" y1="680.3281" y2="680.3281"/><line style="stroke:#000000;stroke-width:1;" x1="520.7822" x2="520.7822" y1="680.3281" y2="702.3281"/><polygon fill="#000000" points="516.7822,692.3281,520.7822,702.3281,524.7822,692.3281,520.7822,696.3281" style="stroke:#000000;stroke-width:1;"/><line style="stroke:#000000;stroke-width:1;" x1="200.3115" x2="200.3115" y1="1231.5117" y2="1249.5117"/><line style="stroke:#000000;stroke-width:1;" x1="200.3115" x2="348.5469" y1="1249.5117" y2="1249.5117"/><polygon fill="#000000" points="338.5469,1245.5117,348.5469,1249.5117,338.5469,1253.5117,342.5469,1249.5117" style="stroke:#000000;stroke-width:1;"/><line style="stroke:#000000;stroke-width:1;" x1="520.7822" x2="520.7822" y1="790.2656" y2="1249.5117"/><line style="stroke:#000000;stroke-width:1;" x1="520.7822" x2="372.5469" y1="1249.5117" y2="1249.5117"/><polygon fill="#000000" points="382.5469,1245.5117,372.5469,1249.5117,382.5469,1253.5117,378.5469,1249.5117" style="stroke:#000000;stroke-width:1;"/><line style="stroke:#000000;stroke-width:1;" x1="360.5469" x2="360.5469" y1="648.3281" y2="668.3281"/><polygon fill="#000000" points="356.5469,658.3281,360.5469,668.3281,364.5469,658.3281,360.5469,662.3281" style="stroke:#000000;stroke-width:1;"/><line style="stroke:#000000;stroke-width:1;" x1="770.6572" x2="770.6572" y1="594.3594" y2="614.3594"/><polygon fill="#000000" points="766.6572,604.3594,770.6572,614.3594,774.6572,604.3594,770.6572,608.3594" style="stroke:#000000;stroke-width:1;"/><line style="stroke:#000000;stroke-width:1;" x1="497.1143" x2="360.5469" y1="538.3906" y2="538.3906"/><line style="stroke:#000000;stroke-width:1;" x1="360.5469" x2="360.5469" y1="538.3906" y2="560.3906"/><polygon fill="#000000" points="356.5469,550.3906,360.5469,560.3906,364.5469,550.3906,360.5469,554.3906" style="stroke:#000000;stroke-width:1;"/><line style="stroke:#000000;stroke-width:1;" x1="634.0898" x2="770.6572" y1="538.3906" y2="538.3906"/><line style="stroke:#000000;stroke-width:1;" x1="770.6572" x2="770.6572" y1="538.3906" y2="560.3906"/><polygon fill="#000000" points="766.6572,550.3906,770.6572,560.3906,774.6572,550.3906,770.6572,554.3906" style="stroke:#000000;stroke-width:1;"/><line style="stroke:#000000;stroke-width:1;" x1="360.5469" x2="360.5469" y1="1261.5117" y2="1279.5117"/><line style="stroke:#000000;stroke-width:1;" x1="360.5469" x2="553.6021" y1="1279.5117" y2="1279.5117"/><polygon fill="#000000" points="543.6021,1275.5117,553.6021,1279.5117,543.6021,1283.5117,547.6021,1279.5117" style="stroke:#000000;stroke-width:1;"/><line style="stroke:#000000;stroke-width:1;" x1="770.6572" x2="770.6572" y1="648.3281" y2="1279.5117"/><line style="stroke:#000000;stroke-width:1;" x1="770.6572" x2="577.6021" y1="1279.5117" y2="1279.5117"/><polygon fill="#000000" points="587.6021,1275.5117,577.6021,1279.5117,587.6021,1283.5117,583.6021,1279.5117" style="stroke:#000000;stroke-width:1;"/><line style="stroke:#000000;stroke-width:1;" x1="565.6021" x2="565.6021" y1="506.3906" y2="526.3906"/><polygon fill="#000000" points="561.6021,516.3906,565.6021,526.3906,569.6021,516.3906,565.6021,520.3906" style="stroke:#000000;stroke-width:1;"/><line style="stroke:#000000;stroke-width:1;" x1="565.6021" x2="565.6021" y1="1291.5117" y2="1311.5117"/><polygon fill="#000000" points="561.6021,1301.5117,565.6021,1311.5117,569.6021,1301.5117,565.6021,1305.5117" style="stroke:#000000;stroke-width:1;"/><!--SRC=[VLH1Rjim4Bph5TkRVUhTFWHf6w012ZH8sWUio5My1SLLISejyXkZXvnwQli2VQnBIhKbkyZ11vlBcTcPeL-b7RK4dKFsLKmOKbLjxe9qWIaDXy02Q2X6X4P2sxloqrPd7ZWcQX7eEzS41jjE8aWT-17Jy4k7ulO2gGj4tkm8s6Sq79w7FnIX7WwH3UOByHidiuFL9-u4B06ff9eS6Mx99xbQLpf7iBhF1tr0d-Zr6mph2c1pRTcmU0ndy8yOKn0__6v74XszYPr2DlezG9geJE_OPvrOHcwzSJq7tIpOuT2f-fLq1T-jjvEAzvB8lRwJFgB55pKe_awKrE8ZjHSIZBHYsQAbkE1k9AcfLZzVUqqcMpeINwUGaNy8f3uCFsDIc1VvTJcTHBvSVoUXX5CqDhqlrulP2oaQtV0y3kbPq7st5NaxvgL1duYT67JyDEdp0YrsEbnn0wiFYpF5D1pnQWrQGW-ho6rPugtuXbLxK2fBXLZlwy7dpWdQhC6AwOl8cCthWjIprW5ahdUdaVrmSAmsdZCj3Fjdzddd2k08URCyWPs-WSngv19vvjqoYkEbiOjbyhJOg49xhUyeBYgN1zKFRaOzctlQgtddwDCJqpB5cV3RPHaa14eO_olweQzRIgI9Oq3OQrnsZEieziRlkPHsJ6dAKZIj5jbjJziNpbmTV2el37tE8TAqYyjDzdhvo7rFIKBEed2JvHdnSVNpUtCYgPsAYDgwEAl82B1v4ATPwrySP8_sN80ds2NeR1I_zFe_1nwNlIvlusEZvJHgLTr7WwC5fy9Eo359znS0]--></g></svg>