<svg xmlns="http://www.w3.org/2000/svg" viewBox="6 5 693.423828125 789.359375"><g xmlns="http://www.w3.org/2000/svg"><ellipse cx="381.7952" cy="15" fill="#FFFFFF" rx="10" ry="10" style="stroke:#000000;stroke-width:1;"></ellipse><rect fill="#FFFFFF" height="33.9688" rx="12.5" ry="12.5" style="stroke:#000000;stroke-width:1;" width="274.209" x="244.6907" y="45"></rect><text fill="#000000" font-family="Verdana" font-size="12" lengthAdjust="spacing" textLength="254.209" x="254.6907" y="66.1387">Turista acessa seção de estabelecimentos</text><polygon fill="#FFFFFF" points="309.8306,98.9688,453.7598,98.9688,465.7598,110.9688,453.7598,122.9688,309.8306,122.9688,297.8306,110.9688,309.8306,98.9688" style="stroke:#000000;stroke-width:1;"></polygon><text fill="#000000" font-family="Verdana" font-size="11" lengthAdjust="spacing" textLength="143.9292" x="309.8306" y="114.7769">Permissão de localização?</text><text fill="#000000" font-family="Verdana" font-size="11" lengthAdjust="spacing" textLength="56.3267" x="241.5039" y="108.3745">concedida</text><text fill="#000000" font-family="Verdana" font-size="11" lengthAdjust="spacing" textLength="41.1855" x="465.7598" y="108.3745">negada</text><rect fill="#FFFFFF" height="33.9688" rx="12.5" ry="12.5" style="stroke:#000000;stroke-width:1;" width="158.3047" x="208.6782" y="132.9688"></rect><text fill="#000000" font-family="Verdana" font-size="12" lengthAdjust="spacing" textLength="138.3047" x="218.6782" y="154.1074">Obter localização atual</text><rect fill="#FFFFFF" height="33.9688" rx="12.5" ry="12.5" style="stroke:#000000;stroke-width:1;" width="155.5449" x="397.9873" y="132.9688"></rect><text fill="#000000" font-family="Verdana" font-size="12" lengthAdjust="spacing" textLength="135.5449" x="407.9873" y="154.1074">Permitir busca manual</text><polygon fill="#FFFFFF" points="381.7952,172.9375,393.7952,184.9375,381.7952,196.9375,369.7952,184.9375,381.7952,172.9375" style="stroke:#000000;stroke-width:1;"></polygon><rect fill="#FFFFFF" height="33.9688" rx="12.5" ry="12.5" style="stroke:#000000;stroke-width:1;" width="170.7383" x="296.426" y="216.9375"></rect><text fill="#000000" font-family="Verdana" font-size="12" lengthAdjust="spacing" textLength="150.7383" x="306.426" y="238.0762">Definir critérios de busca</text><polygon fill="#FFFFFF" points="340.5237,270.9063,423.0667,270.9063,435.0667,282.9063,423.0667,294.9063,340.5237,294.9063,328.5237,282.9063,340.5237,270.9063" style="stroke:#000000;stroke-width:1;"></polygon><text fill="#000000" font-family="Verdana" font-size="11" lengthAdjust="spacing" textLength="82.543" x="340.5237" y="286.7144">Tipo de busca?</text><rect fill="#FFFFFF" height="33.9688" rx="12.5" ry="12.5" style="stroke:#000000;stroke-width:1;" width="222.8223" x="127.3723" y="330.5156"></rect><text fill="#000000" font-family="Verdana" font-size="12" lengthAdjust="spacing" textLength="202.8223" x="137.3723" y="351.6543">Listar estabelecimentos próximos</text><rect fill="#FFFFFF" height="33.9688" rx="12.5" ry="12.5" style="stroke:#000000;stroke-width:1;" width="106.0156" x="370.1946" y="330.5156"></rect><text fill="#000000" font-family="Verdana" font-size="12" lengthAdjust="spacing" textLength="86.0156" x="380.1946" y="351.6543">Filtrar por tipo</text><rect fill="#FFFFFF" height="33.9688" rx="12.5" ry="12.5" style="stroke:#000000;stroke-width:1;" width="119.7324" x="516.4856" y="330.5156"></rect><text fill="#000000" font-family="Verdana" font-size="12" lengthAdjust="spacing" textLength="99.7324" x="526.4856" y="351.6543">Buscar por texto</text><polygon fill="#FFFFFF" points="381.7952,384.4844,381.7952,384.4844,393.7952,396.4844,381.7952,408.4844,381.7952,408.4844,369.7952,396.4844,381.7952,384.4844" style="stroke:#000000;stroke-width:1;"></polygon><polygon fill="#FFFFFF" points="312.5403,428.4844,451.05,428.4844,463.05,440.4844,451.05,452.4844,312.5403,452.4844,300.5403,440.4844,312.5403,428.4844" style="stroke:#000000;stroke-width:1;"></polygon><text fill="#000000" font-family="Verdana" font-size="11" lengthAdjust="spacing" textLength="138.5098" x="312.5403" y="444.2925">Resultados encontrados?</text><text fill="#000000" font-family="Verdana" font-size="11" lengthAdjust="spacing" textLength="19.5024" x="281.0378" y="437.8901">sim</text><text fill="#000000" font-family="Verdana" font-size="11" lengthAdjust="spacing" textLength="20.4424" x="463.05" y="437.8901">não</text><rect fill="#FFFFFF" height="33.9688" rx="12.5" ry="12.5" style="stroke:#000000;stroke-width:1;" width="206.1582" x="89.6636" y="462.4844"></rect><text fill="#000000" font-family="Verdana" font-size="12" lengthAdjust="spacing" textLength="186.1582" x="99.6636" y="483.623">Exibir lista/mapa de resultados</text><rect fill="#FFFFFF" height="33.9688" rx="12.5" ry="12.5" style="stroke:#000000;stroke-width:1;" width="225.793" x="79.8462" y="516.4531"></rect><text fill="#000000" font-family="Verdana" font-size="12" lengthAdjust="spacing" textLength="205.793" x="89.8462" y="537.5918">Turista seleciona estabelecimento</text><rect fill="#FFFFFF" height="33.9688" rx="12.5" ry="12.5" style="stroke:#000000;stroke-width:1;" width="202.1621" x="91.6616" y="570.4219"></rect><text fill="#000000" font-family="Verdana" font-size="12" lengthAdjust="spacing" textLength="182.1621" x="101.6616" y="591.5605">Exibir informações detalhadas</text><polygon fill="#FFFFFF" points="125.4966,624.3906,259.9888,624.3906,271.9888,636.3906,259.9888,648.3906,125.4966,648.3906,113.4966,636.3906,125.4966,624.3906" style="stroke:#000000;stroke-width:1;"></polygon><text fill="#000000" font-family="Verdana" font-size="11" lengthAdjust="spacing" textLength="134.4922" x="125.4966" y="640.1987">Informações completas?</text><text fill="#000000" font-family="Verdana" font-size="11" lengthAdjust="spacing" textLength="19.5024" x="93.9941" y="633.7964">sim</text><text fill="#000000" font-family="Verdana" font-size="11" lengthAdjust="spacing" textLength="20.4424" x="271.9888" y="633.7964">não</text><rect fill="#FFFFFF" height="33.9688" rx="12.5" ry="12.5" style="stroke:#000000;stroke-width:1;" width="160.3496" x="6" y="658.3906"></rect><text fill="#000000" font-family="Verdana" font-size="12" lengthAdjust="spacing" textLength="140.3496" x="16" y="679.5293">Mostrar todos os dados</text><rect fill="#FFFFFF" height="33.9688" rx="12.5" ry="12.5" style="stroke:#000000;stroke-width:1;" width="225.9219" x="186.3496" y="658.3906"></rect><text fill="#000000" font-family="Verdana" font-size="12" lengthAdjust="spacing" textLength="205.9219" x="196.3496" y="679.5293">Mostrar dados disponíveis + aviso</text><polygon fill="#FFFFFF" points="192.7427,698.3594,204.7427,710.3594,192.7427,722.3594,180.7427,710.3594,192.7427,698.3594" style="stroke:#000000;stroke-width:1;"></polygon><rect fill="#FFFFFF" height="33.9688" rx="12.5" ry="12.5" style="stroke:#000000;stroke-width:1;" width="257.1523" x="442.2715" y="462.4844"></rect><text fill="#000000" font-family="Verdana" font-size="12" lengthAdjust="spacing" textLength="237.1523" x="452.2715" y="483.623">Exibir mensagem de nenhum resultado</text><polygon fill="#FFFFFF" points="381.7952,728.3594,393.7952,740.3594,381.7952,752.3594,369.7952,740.3594,381.7952,728.3594" style="stroke:#000000;stroke-width:1;"></polygon><ellipse cx="381.7952" cy="783.3594" fill="none" rx="11" ry="11" style="stroke:#000000;stroke-width:1;"></ellipse><ellipse cx="381.7952" cy="783.3594" fill="#FFFFFF" rx="6" ry="6" style="stroke:#000000;stroke-width:1;"></ellipse><line style="stroke:#000000;stroke-width:1;" x1="381.7952" x2="381.7952" y1="25" y2="45"></line><polygon fill="#000000" points="377.7952,35,381.7952,45,385.7952,35,381.7952,39" style="stroke:#000000;stroke-width:1;"></polygon><line style="stroke:#000000;stroke-width:1;" x1="297.8306" x2="287.8306" y1="110.9688" y2="110.9688"></line><line style="stroke:#000000;stroke-width:1;" x1="287.8306" x2="287.8306" y1="110.9688" y2="132.9688"></line><polygon fill="#000000" points="283.8306,122.9688,287.8306,132.9688,291.8306,122.9688,287.8306,126.9688" style="stroke:#000000;stroke-width:1;"></polygon><line style="stroke:#000000;stroke-width:1;" x1="465.7598" x2="475.7598" y1="110.9688" y2="110.9688"></line><line style="stroke:#000000;stroke-width:1;" x1="475.7598" x2="475.7598" y1="110.9688" y2="132.9688"></line><polygon fill="#000000" points="471.7598,122.9688,475.7598,132.9688,479.7598,122.9688,475.7598,126.9688" style="stroke:#000000;stroke-width:1;"></polygon><line style="stroke:#000000;stroke-width:1;" x1="287.8306" x2="287.8306" y1="166.9375" y2="184.9375"></line><line style="stroke:#000000;stroke-width:1;" x1="287.8306" x2="369.7952" y1="184.9375" y2="184.9375"></line><polygon fill="#000000" points="359.7952,180.9375,369.7952,184.9375,359.7952,188.9375,363.7952,184.9375" style="stroke:#000000;stroke-width:1;"></polygon><line style="stroke:#000000;stroke-width:1;" x1="475.7598" x2="475.7598" y1="166.9375" y2="184.9375"></line><line style="stroke:#000000;stroke-width:1;" x1="475.7598" x2="393.7952" y1="184.9375" y2="184.9375"></line><polygon fill="#000000" points="403.7952,180.9375,393.7952,184.9375,403.7952,188.9375,399.7952,184.9375" style="stroke:#000000;stroke-width:1;"></polygon><line style="stroke:#000000;stroke-width:1;" x1="381.7952" x2="381.7952" y1="78.9688" y2="98.9688"></line><polygon fill="#000000" points="377.7952,88.9688,381.7952,98.9688,385.7952,88.9688,381.7952,92.9688" style="stroke:#000000;stroke-width:1;"></polygon><line style="stroke:#000000;stroke-width:1;" x1="381.7952" x2="381.7952" y1="196.9375" y2="216.9375"></line><polygon fill="#000000" points="377.7952,206.9375,381.7952,216.9375,385.7952,206.9375,381.7952,210.9375" style="stroke:#000000;stroke-width:1;"></polygon><line style="stroke:#000000;stroke-width:1;" x1="328.5237" x2="238.7834" y1="282.9063" y2="282.9063"></line><line style="stroke:#000000;stroke-width:1;" x1="238.7834" x2="238.7834" y1="282.9063" y2="330.5156"></line><polygon fill="#000000" points="234.7834,320.5156,238.7834,330.5156,242.7834,320.5156,238.7834,324.5156" style="stroke:#000000;stroke-width:1;"></polygon><text fill="#000000" font-family="Verdana" font-size="11" lengthAdjust="spacing" textLength="90.4277" x="238.7834" y="310.519">Por proximidade</text><line style="stroke:#000000;stroke-width:1;" x1="435.0667" x2="576.3518" y1="282.9063" y2="282.9063"></line><line style="stroke:#000000;stroke-width:1;" x1="576.3518" x2="576.3518" y1="282.9063" y2="330.5156"></line><polygon fill="#000000" points="572.3518,320.5156,576.3518,330.5156,580.3518,320.5156,576.3518,324.5156" style="stroke:#000000;stroke-width:1;"></polygon><text fill="#000000" font-family="Verdana" font-size="11" lengthAdjust="spacing" textLength="52.5669" x="576.3518" y="310.519">Por nome</text><line style="stroke:#000000;stroke-width:1;" x1="381.7952" x2="381.7952" y1="294.9063" y2="306.776"></line><line style="stroke:#000000;stroke-width:1;" x1="381.7952" x2="423.2024" y1="306.776" y2="306.776"></line><line style="stroke:#000000;stroke-width:1;" x1="423.2024" x2="423.2024" y1="306.776" y2="330.5156"></line><polygon fill="#000000" points="419.2024,320.5156,423.2024,330.5156,427.2024,320.5156,423.2024,324.5156" style="stroke:#000000;stroke-width:1;"></polygon><text fill="#000000" font-family="Verdana" font-size="11" lengthAdjust="spacing" textLength="73.2832" x="381.7952" y="311.519">Por categoria</text><line style="stroke:#000000;stroke-width:1;" x1="238.7834" x2="238.7834" y1="364.4844" y2="396.4844"></line><line style="stroke:#000000;stroke-width:1;" x1="238.7834" x2="369.7952" y1="396.4844" y2="396.4844"></line><polygon fill="#000000" points="359.7952,392.4844,369.7952,396.4844,359.7952,400.4844,363.7952,396.4844" style="stroke:#000000;stroke-width:1;"></polygon><line style="stroke:#000000;stroke-width:1;" x1="576.3518" x2="576.3518" y1="364.4844" y2="396.4844"></line><line style="stroke:#000000;stroke-width:1;" x1="576.3518" x2="393.7952" y1="396.4844" y2="396.4844"></line><polygon fill="#000000" points="403.7952,392.4844,393.7952,396.4844,403.7952,400.4844,399.7952,396.4844" style="stroke:#000000;stroke-width:1;"></polygon><line style="stroke:#000000;stroke-width:1;" x1="423.2024" x2="423.2024" y1="364.4844" y2="369.4844"></line><line style="stroke:#000000;stroke-width:1;" x1="423.2024" x2="381.7952" y1="369.4844" y2="369.4844"></line><line style="stroke:#000000;stroke-width:1;" x1="381.7952" x2="381.7952" y1="369.4844" y2="384.4844"></line><polygon fill="#000000" points="377.7952,374.4844,381.7952,384.4844,385.7952,374.4844,381.7952,378.4844" style="stroke:#000000;stroke-width:1;"></polygon><line style="stroke:#000000;stroke-width:1;" x1="381.7952" x2="381.7952" y1="250.9063" y2="270.9063"></line><polygon fill="#000000" points="377.7952,260.9063,381.7952,270.9063,385.7952,260.9063,381.7952,264.9063" style="stroke:#000000;stroke-width:1;"></polygon><line style="stroke:#000000;stroke-width:1;" x1="192.7427" x2="192.7427" y1="496.4531" y2="516.4531"></line><polygon fill="#000000" points="188.7427,506.4531,192.7427,516.4531,196.7427,506.4531,192.7427,510.4531" style="stroke:#000000;stroke-width:1;"></polygon><line style="stroke:#000000;stroke-width:1;" x1="192.7427" x2="192.7427" y1="550.4219" y2="570.4219"></line><polygon fill="#000000" points="188.7427,560.4219,192.7427,570.4219,196.7427,560.4219,192.7427,564.4219" style="stroke:#000000;stroke-width:1;"></polygon><line style="stroke:#000000;stroke-width:1;" x1="113.4966" x2="86.1748" y1="636.3906" y2="636.3906"></line><line style="stroke:#000000;stroke-width:1;" x1="86.1748" x2="86.1748" y1="636.3906" y2="658.3906"></line><polygon fill="#000000" points="82.1748,648.3906,86.1748,658.3906,90.1748,648.3906,86.1748,652.3906" style="stroke:#000000;stroke-width:1;"></polygon><line style="stroke:#000000;stroke-width:1;" x1="271.9888" x2="299.3105" y1="636.3906" y2="636.3906"></line><line style="stroke:#000000;stroke-width:1;" x1="299.3105" x2="299.3105" y1="636.3906" y2="658.3906"></line><polygon fill="#000000" points="295.3105,648.3906,299.3105,658.3906,303.3105,648.3906,299.3105,652.3906" style="stroke:#000000;stroke-width:1;"></polygon><line style="stroke:#000000;stroke-width:1;" x1="86.1748" x2="86.1748" y1="692.3594" y2="710.3594"></line><line style="stroke:#000000;stroke-width:1;" x1="86.1748" x2="180.7427" y1="710.3594" y2="710.3594"></line><polygon fill="#000000" points="170.7427,706.3594,180.7427,710.3594,170.7427,714.3594,174.7427,710.3594" style="stroke:#000000;stroke-width:1;"></polygon><line style="stroke:#000000;stroke-width:1;" x1="299.3105" x2="299.3105" y1="692.3594" y2="710.3594"></line><line style="stroke:#000000;stroke-width:1;" x1="299.3105" x2="204.7427" y1="710.3594" y2="710.3594"></line><polygon fill="#000000" points="214.7427,706.3594,204.7427,710.3594,214.7427,714.3594,210.7427,710.3594" style="stroke:#000000;stroke-width:1;"></polygon><line style="stroke:#000000;stroke-width:1;" x1="192.7427" x2="192.7427" y1="604.3906" y2="624.3906"></line><polygon fill="#000000" points="188.7427,614.3906,192.7427,624.3906,196.7427,614.3906,192.7427,618.3906" style="stroke:#000000;stroke-width:1;"></polygon><line style="stroke:#000000;stroke-width:1;" x1="300.5403" x2="192.7427" y1="440.4844" y2="440.4844"></line><line style="stroke:#000000;stroke-width:1;" x1="192.7427" x2="192.7427" y1="440.4844" y2="462.4844"></line><polygon fill="#000000" points="188.7427,452.4844,192.7427,462.4844,196.7427,452.4844,192.7427,456.4844" style="stroke:#000000;stroke-width:1;"></polygon><line style="stroke:#000000;stroke-width:1;" x1="463.05" x2="570.8477" y1="440.4844" y2="440.4844"></line><line style="stroke:#000000;stroke-width:1;" x1="570.8477" x2="570.8477" y1="440.4844" y2="462.4844"></line><polygon fill="#000000" points="566.8477,452.4844,570.8477,462.4844,574.8477,452.4844,570.8477,456.4844" style="stroke:#000000;stroke-width:1;"></polygon><line style="stroke:#000000;stroke-width:1;" x1="192.7427" x2="192.7427" y1="722.3594" y2="740.3594"></line><line style="stroke:#000000;stroke-width:1;" x1="192.7427" x2="369.7952" y1="740.3594" y2="740.3594"></line><polygon fill="#000000" points="359.7952,736.3594,369.7952,740.3594,359.7952,744.3594,363.7952,740.3594" style="stroke:#000000;stroke-width:1;"></polygon><line style="stroke:#000000;stroke-width:1;" x1="570.8477" x2="570.8477" y1="496.4531" y2="740.3594"></line><line style="stroke:#000000;stroke-width:1;" x1="570.8477" x2="393.7952" y1="740.3594" y2="740.3594"></line><polygon fill="#000000" points="403.7952,736.3594,393.7952,740.3594,403.7952,744.3594,399.7952,740.3594" style="stroke:#000000;stroke-width:1;"></polygon><line style="stroke:#000000;stroke-width:1;" x1="381.7952" x2="381.7952" y1="408.4844" y2="428.4844"></line><polygon fill="#000000" points="377.7952,418.4844,381.7952,428.4844,385.7952,418.4844,381.7952,422.4844" style="stroke:#000000;stroke-width:1;"></polygon><line style="stroke:#000000;stroke-width:1;" x1="381.7952" x2="381.7952" y1="752.3594" y2="772.3594"></line><polygon fill="#000000" points="377.7952,762.3594,381.7952,772.3594,385.7952,762.3594,381.7952,766.3594" style="stroke:#000000;stroke-width:1;"></polygon><!--SRC=[PP91RXin34NtSmfsPoEBxkD5WA894215Wy8Ne3MqJK0I1oB7DNgTBeekkYfwWhbOAOtjnCbEa1x9__drmVQK28Q8d3irBDPrj-kni9y10waYA4s_ffy2FG7vzOOY1KwKJNJLTRo5nJELnAedA4h0o3-mLTqjmKTaM0J9WNhkSTa1t7xT69Lh4j16ZAkEeX8iCktmnBRknWKsemQ4X7dcSizRL_kPjfpzDHIswNTXqIgYiIvFlxE5FIpMFCZb_cxP1QnJdgN0KEJ8oONrrCOzLU_bdLNdfhyELjClnG6DTb9uLlh0qOhN3lvYFl0rcIND_JzL1IU6ZYRDoInptkOtqZ4QzZwJig_DM_hviaZbrFhS7tdZjcEL-p7XWDLUkTIkAdDEKfiHoVZMrkfL9yvRAQc6yO_g3WtZtZEe8GDKOOzNG90qH8VUAVEENqJR8aogYvh8MT8fNS_x3Te8w5a7oTEV0x723U21jMcSmxukFkjs8uexIjL_fhmVqyiQBjz4JOR_]--></g></svg>