<svg xmlns="http://www.w3.org/2000/svg" xmlns:xlink="http://www.w3.org/1999/xlink" contentStyleType="text/css" data-diagram-type="ACTIVITY" height="1099px" preserveAspectRatio="none" style="width:1588px;height:1099px;background:#FFFFFF;" version="1.1" viewBox="0 0 1588 1099" width="1588px" zoomAndPan="magnify"><defs/><g><ellipse cx="1028.3872" cy="15" fill="#FFFFFF" rx="10" ry="10" style="stroke:#000000;stroke-width:1;"/><rect fill="#FFFFFF" height="33.9688" rx="12.5" ry="12.5" style="stroke:#000000;stroke-width:1;" width="221.791" x="917.4917" y="45"/><text fill="#000000" font-family="Verdana" font-size="12" lengthAdjust="spacing" textLength="201.791" x="927.4917" y="66.1387">Turista acessa conteúdo histórico</text><rect fill="#FFFFFF" height="33.9688" rx="12.5" ry="12.5" style="stroke:#000000;stroke-width:1;" width="210.916" x="922.9292" y="98.9688"/><text fill="#000000" font-family="Verdana" font-size="12" lengthAdjust="spacing" textLength="190.916" x="932.9292" y="120.1074">Sistema verifica disponibilidade</text><polygon fill="#FFFFFF" points="955.2463,152.9375,1101.5281,152.9375,1113.5281,164.9375,1101.5281,176.9375,955.2463,176.9375,943.2463,164.9375,955.2463,152.9375" style="stroke:#000000;stroke-width:1;"/><text fill="#000000" font-family="Verdana" font-size="11" lengthAdjust="spacing" textLength="146.2817" x="955.2463" y="168.7456">Conteúdo histórico existe?</text><text fill="#000000" font-family="Verdana" font-size="11" lengthAdjust="spacing" textLength="19.5024" x="923.7439" y="162.3433">sim</text><text fill="#000000" font-family="Verdana" font-size="11" lengthAdjust="spacing" textLength="20.4424" x="1113.5281" y="162.3433">não</text><rect fill="#FFFFFF" height="33.9688" rx="12.5" ry="12.5" style="stroke:#000000;stroke-width:1;" width="167.2578" x="538.9053" y="186.9375"/><text fill="#000000" font-family="Verdana" font-size="12" lengthAdjust="spacing" textLength="147.2578" x="548.9053" y="208.0762">Carregar linha do tempo</text><rect fill="#FFFFFF" height="33.9688" rx="12.5" ry="12.5" style="stroke:#000000;stroke-width:1;" width="171.0488" x="537.0098" y="240.9063"/><text fill="#000000" font-family="Verdana" font-size="12" lengthAdjust="spacing" textLength="151.0488" x="547.0098" y="262.0449">Exibir períodos históricos</text><rect fill="#FFFFFF" height="33.9688" rx="12.5" ry="12.5" style="stroke:#000000;stroke-width:1;" width="191.8262" x="526.6211" y="294.875"/><text fill="#000000" font-family="Verdana" font-size="12" lengthAdjust="spacing" textLength="171.8262" x="536.6211" y="316.0137">Turista navega pela timeline</text><polygon fill="#FFFFFF" points="564.3652,348.8438,680.7031,348.8438,692.7031,360.8438,680.7031,372.8438,564.3652,372.8438,552.3652,360.8438,564.3652,348.8438" style="stroke:#000000;stroke-width:1;"/><text fill="#000000" font-family="Verdana" font-size="11" lengthAdjust="spacing" textLength="116.3379" x="564.3652" y="364.6519">Período selecionado?</text><rect fill="#FFFFFF" height="33.9688" rx="12.5" ry="12.5" style="stroke:#000000;stroke-width:1;" width="196.4902" x="506.8647" y="408.4531"/><text fill="#000000" font-family="Verdana" font-size="12" lengthAdjust="spacing" textLength="176.4902" x="516.8647" y="429.5918">Carregar detalhes do período</text><polygon fill="#FFFFFF" points="532.5249,462.4219,677.6948,462.4219,689.6948,474.4219,677.6948,486.4219,532.5249,486.4219,520.5249,474.4219,532.5249,462.4219" style="stroke:#000000;stroke-width:1;"/><text fill="#000000" font-family="Verdana" font-size="11" lengthAdjust="spacing" textLength="145.1699" x="532.5249" y="478.23">Mídia histórica disponível?</text><text fill="#000000" font-family="Verdana" font-size="11" lengthAdjust="spacing" textLength="19.5024" x="501.0225" y="471.8276">sim</text><text fill="#000000" font-family="Verdana" font-size="11" lengthAdjust="spacing" textLength="20.4424" x="689.6948" y="471.8276">não</text><rect fill="#FFFFFF" height="33.9688" rx="12.5" ry="12.5" style="stroke:#000000;stroke-width:1;" width="224.6563" x="242.2441" y="496.4219"/><text fill="#000000" font-family="Verdana" font-size="12" lengthAdjust="spacing" textLength="204.6563" x="252.2441" y="517.5605">Exibir fotos/documentos da época</text><polygon fill="#FFFFFF" points="314.2622,550.3906,394.8823,550.3906,406.8823,562.3906,394.8823,574.3906,314.2622,574.3906,302.2622,562.3906,314.2622,550.3906" style="stroke:#000000;stroke-width:1;"/><text fill="#000000" font-family="Verdana" font-size="11" lengthAdjust="spacing" textLength="80.6201" x="314.2622" y="566.1987">Tipo de mídia?</text><rect fill="#FFFFFF" height="33.9688" rx="12.5" ry="12.5" style="stroke:#000000;stroke-width:1;" width="184.8594" x="26.6924" y="610"/><text fill="#000000" font-family="Verdana" font-size="12" lengthAdjust="spacing" textLength="164.8594" x="36.6924" y="631.1387">Mostrar galeria de imagens</text><rect fill="#FFFFFF" height="33.9688" rx="12.5" ry="12.5" style="stroke:#000000;stroke-width:1;" width="226.2441" x="6" y="663.9688"/><text fill="#000000" font-family="Verdana" font-size="12" lengthAdjust="spacing" textLength="206.2441" x="16" y="685.1074">Permitir comparação antes/depois</text><rect fill="#FFFFFF" height="33.9688" rx="12.5" ry="12.5" style="stroke:#000000;stroke-width:1;" width="211.1621" x="268.5439" y="610"/><text fill="#000000" font-family="Verdana" font-size="12" lengthAdjust="spacing" textLength="191.1621" x="278.5439" y="631.1387">Exibir documentos digitalizados</text><rect fill="#FFFFFF" height="33.9688" rx="12.5" ry="12.5" style="stroke:#000000;stroke-width:1;" width="256.666" x="245.792" y="663.9688"/><text fill="#000000" font-family="Verdana" font-size="12" lengthAdjust="spacing" textLength="236.666" x="255.792" y="685.1074">Mostrar transcrições quando disponível</text><rect fill="#FFFFFF" height="33.9688" rx="12.5" ry="12.5" style="stroke:#000000;stroke-width:1;" width="187.1387" x="522.458" y="610"/><text fill="#000000" font-family="Verdana" font-size="12" lengthAdjust="spacing" textLength="167.1387" x="532.458" y="631.1387">Reproduzir vídeos da época</text><polygon fill="#FFFFFF" points="354.5723,717.9375,354.5723,717.9375,366.5723,729.9375,354.5723,741.9375,354.5723,741.9375,342.5723,729.9375,354.5723,717.9375" style="stroke:#000000;stroke-width:1;"/><rect fill="#FFFFFF" height="33.9688" rx="12.5" ry="12.5" style="stroke:#000000;stroke-width:1;" width="198.7461" x="756.2744" y="496.4219"/><text fill="#000000" font-family="Verdana" font-size="12" lengthAdjust="spacing" textLength="178.7461" x="766.2744" y="517.5605">Exibir apenas texto descritivo</text><rect fill="#FFFFFF" height="33.9688" rx="12.5" ry="12.5" style="stroke:#000000;stroke-width:1;" width="252.1016" x="729.5967" y="550.3906"/><text fill="#000000" font-family="Verdana" font-size="12" lengthAdjust="spacing" textLength="232.1016" x="739.5967" y="571.5293">Mostrar marcos históricos importantes</text><polygon fill="#FFFFFF" points="605.1099,747.9375,617.1099,759.9375,605.1099,771.9375,593.1099,759.9375,605.1099,747.9375" style="stroke:#000000;stroke-width:1;"/><rect fill="#FFFFFF" height="33.9688" rx="12.5" ry="12.5" style="stroke:#000000;stroke-width:1;" width="243.8223" x="1011.6982" y="408.4531"/><text fill="#000000" font-family="Verdana" font-size="12" lengthAdjust="spacing" textLength="223.8223" x="1021.6982" y="429.5918">Mostrar resumo de todos os períodos</text><rect fill="#FFFFFF" height="33.9688" rx="12.5" ry="12.5" style="stroke:#000000;stroke-width:1;" width="233.3926" x="1016.9131" y="462.4219"/><text fill="#000000" font-family="Verdana" font-size="12" lengthAdjust="spacing" textLength="213.3926" x="1026.9131" y="483.5605">Destacar principais transformações</text><polygon fill="#FFFFFF" points="622.5342,781.9375,622.5342,781.9375,634.5342,793.9375,622.5342,805.9375,622.5342,805.9375,610.5342,793.9375,622.5342,781.9375" style="stroke:#000000;stroke-width:1;"/><rect fill="#FFFFFF" height="33.9688" rx="12.5" ry="12.5" style="stroke:#000000;stroke-width:1;" width="199.3613" x="522.8535" y="874.3398"/><text fill="#000000" font-family="Verdana" font-size="12" lengthAdjust="spacing" textLength="179.3613" x="532.8535" y="895.4785">Oferecer salvar como favorito</text><rect fill="#FFFFFF" height="33.9688" rx="12.5" ry="12.5" style="stroke:#000000;stroke-width:1;" width="219.5059" x="512.7813" y="943.3086"/><text fill="#000000" font-family="Verdana" font-size="12" lengthAdjust="spacing" textLength="199.5059" x="522.7813" y="964.4473">Permitir adicionar notas pessoais</text><polygon fill="#FFFFFF" points="578.3542,825.9375,666.7141,825.9375,678.7141,837.9375,666.7141,849.9375,578.3542,849.9375,566.3542,837.9375,578.3542,825.9375" style="stroke:#000000;stroke-width:1;"/><text fill="#000000" font-family="Verdana" font-size="11" lengthAdjust="spacing" textLength="19.5024" x="626.5342" y="860.1479">sim</text><text fill="#000000" font-family="Verdana" font-size="11" lengthAdjust="spacing" textLength="88.3599" x="578.3542" y="841.7456">Usuário logado?</text><polygon fill="#FFFFFF" points="622.5342,997.2773,634.5342,1009.2773,622.5342,1021.2773,610.5342,1009.2773,622.5342,997.2773" style="stroke:#000000;stroke-width:1;"/><rect fill="#FFFFFF" height="33.9688" rx="12.5" ry="12.5" style="stroke:#000000;stroke-width:1;" width="317.4395" x="1265.5205" y="186.9375"/><text fill="#000000" font-family="Verdana" font-size="12" lengthAdjust="spacing" textLength="297.4395" x="1275.5205" y="208.0762">Informar que conteúdo está em desenvolvimento</text><rect fill="#FFFFFF" height="33.9688" rx="12.5" ry="12.5" style="stroke:#000000;stroke-width:1;" width="292.9473" x="1277.7666" y="240.9063"/><text fill="#000000" font-family="Verdana" font-size="12" lengthAdjust="spacing" textLength="272.9473" x="1287.7666" y="262.0449">Sugerir outros pontos com história disponível</text><polygon fill="#FFFFFF" points="1028.3872,1027.2773,1040.3872,1039.2773,1028.3872,1051.2773,1016.3872,1039.2773,1028.3872,1027.2773" style="stroke:#000000;stroke-width:1;"/><ellipse cx="1028.3872" cy="1082.2773" fill="none" rx="11" ry="11" style="stroke:#000000;stroke-width:1;"/><ellipse cx="1028.3872" cy="1082.2773" fill="#FFFFFF" rx="6" ry="6" style="stroke:#000000;stroke-width:1;"/><line style="stroke:#000000;stroke-width:1;" x1="1028.3872" x2="1028.3872" y1="25" y2="45"/><polygon fill="#000000" points="1024.3872,35,1028.3872,45,1032.3872,35,1028.3872,39" style="stroke:#000000;stroke-width:1;"/><line style="stroke:#000000;stroke-width:1;" x1="1028.3872" x2="1028.3872" y1="78.9688" y2="98.9688"/><polygon fill="#000000" points="1024.3872,88.9688,1028.3872,98.9688,1032.3872,88.9688,1028.3872,92.9688" style="stroke:#000000;stroke-width:1;"/><line style="stroke:#000000;stroke-width:1;" x1="622.5342" x2="622.5342" y1="220.9063" y2="240.9063"/><polygon fill="#000000" points="618.5342,230.9063,622.5342,240.9063,626.5342,230.9063,622.5342,234.9063" style="stroke:#000000;stroke-width:1;"/><line style="stroke:#000000;stroke-width:1;" x1="622.5342" x2="622.5342" y1="274.875" y2="294.875"/><polygon fill="#000000" points="618.5342,284.875,622.5342,294.875,626.5342,284.875,622.5342,288.875" style="stroke:#000000;stroke-width:1;"/><line style="stroke:#000000;stroke-width:1;" x1="119.1221" x2="119.1221" y1="643.9688" y2="663.9688"/><polygon fill="#000000" points="115.1221,653.9688,119.1221,663.9688,123.1221,653.9688,119.1221,657.9688" style="stroke:#000000;stroke-width:1;"/><line style="stroke:#000000;stroke-width:1;" x1="374.125" x2="374.125" y1="643.9688" y2="663.9688"/><polygon fill="#000000" points="370.125,653.9688,374.125,663.9688,378.125,653.9688,374.125,657.9688" style="stroke:#000000;stroke-width:1;"/><line style="stroke:#000000;stroke-width:1;" x1="302.2622" x2="119.1221" y1="562.3906" y2="562.3906"/><line style="stroke:#000000;stroke-width:1;" x1="119.1221" x2="119.1221" y1="562.3906" y2="610"/><polygon fill="#000000" points="115.1221,600,119.1221,610,123.1221,600,119.1221,604" style="stroke:#000000;stroke-width:1;"/><text fill="#000000" font-family="Verdana" font-size="11" lengthAdjust="spacing" textLength="73.8633" x="119.1221" y="590.0034">Fotos antigas</text><line style="stroke:#000000;stroke-width:1;" x1="406.8823" x2="616.0273" y1="562.3906" y2="562.3906"/><line style="stroke:#000000;stroke-width:1;" x1="616.0273" x2="616.0273" y1="562.3906" y2="610"/><polygon fill="#000000" points="612.0273,600,616.0273,610,620.0273,600,616.0273,604" style="stroke:#000000;stroke-width:1;"/><text fill="#000000" font-family="Verdana" font-size="11" lengthAdjust="spacing" textLength="93.1777" x="616.0273" y="590.0034">Vídeos históricos</text><line style="stroke:#000000;stroke-width:1;" x1="354.5723" x2="354.5723" y1="574.3906" y2="586.2604"/><line style="stroke:#000000;stroke-width:1;" x1="354.5723" x2="374.125" y1="586.2604" y2="586.2604"/><line style="stroke:#000000;stroke-width:1;" x1="374.125" x2="374.125" y1="586.2604" y2="610"/><polygon fill="#000000" points="370.125,600,374.125,610,378.125,600,374.125,604" style="stroke:#000000;stroke-width:1;"/><text fill="#000000" font-family="Verdana" font-size="11" lengthAdjust="spacing" textLength="125.834" x="354.5723" y="591.0034">Documentos históricos</text><line style="stroke:#000000;stroke-width:1;" x1="119.1221" x2="119.1221" y1="697.9375" y2="729.9375"/><line style="stroke:#000000;stroke-width:1;" x1="119.1221" x2="342.5723" y1="729.9375" y2="729.9375"/><polygon fill="#000000" points="332.5723,725.9375,342.5723,729.9375,332.5723,733.9375,336.5723,729.9375" style="stroke:#000000;stroke-width:1;"/><line style="stroke:#000000;stroke-width:1;" x1="616.0273" x2="616.0273" y1="643.9688" y2="729.9375"/><line style="stroke:#000000;stroke-width:1;" x1="616.0273" x2="366.5723" y1="729.9375" y2="729.9375"/><polygon fill="#000000" points="376.5723,725.9375,366.5723,729.9375,376.5723,733.9375,372.5723,729.9375" style="stroke:#000000;stroke-width:1;"/><line style="stroke:#000000;stroke-width:1;" x1="374.125" x2="374.125" y1="697.9375" y2="702.9375"/><line style="stroke:#000000;stroke-width:1;" x1="374.125" x2="354.5723" y1="702.9375" y2="702.9375"/><line style="stroke:#000000;stroke-width:1;" x1="354.5723" x2="354.5723" y1="702.9375" y2="717.9375"/><polygon fill="#000000" points="350.5723,707.9375,354.5723,717.9375,358.5723,707.9375,354.5723,711.9375" style="stroke:#000000;stroke-width:1;"/><line style="stroke:#000000;stroke-width:1;" x1="354.5723" x2="354.5723" y1="530.3906" y2="550.3906"/><polygon fill="#000000" points="350.5723,540.3906,354.5723,550.3906,358.5723,540.3906,354.5723,544.3906" style="stroke:#000000;stroke-width:1;"/><line style="stroke:#000000;stroke-width:1;" x1="855.6475" x2="855.6475" y1="530.3906" y2="550.3906"/><polygon fill="#000000" points="851.6475,540.3906,855.6475,550.3906,859.6475,540.3906,855.6475,544.3906" style="stroke:#000000;stroke-width:1;"/><line style="stroke:#000000;stroke-width:1;" x1="520.5249" x2="354.5723" y1="474.4219" y2="474.4219"/><line style="stroke:#000000;stroke-width:1;" x1="354.5723" x2="354.5723" y1="474.4219" y2="496.4219"/><polygon fill="#000000" points="350.5723,486.4219,354.5723,496.4219,358.5723,486.4219,354.5723,490.4219" style="stroke:#000000;stroke-width:1;"/><line style="stroke:#000000;stroke-width:1;" x1="689.6948" x2="855.6475" y1="474.4219" y2="474.4219"/><line style="stroke:#000000;stroke-width:1;" x1="855.6475" x2="855.6475" y1="474.4219" y2="496.4219"/><polygon fill="#000000" points="851.6475,486.4219,855.6475,496.4219,859.6475,486.4219,855.6475,490.4219" style="stroke:#000000;stroke-width:1;"/><line style="stroke:#000000;stroke-width:1;" x1="354.5723" x2="354.5723" y1="741.9375" y2="759.9375"/><line style="stroke:#000000;stroke-width:1;" x1="354.5723" x2="593.1099" y1="759.9375" y2="759.9375"/><polygon fill="#000000" points="583.1099,755.9375,593.1099,759.9375,583.1099,763.9375,587.1099,759.9375" style="stroke:#000000;stroke-width:1;"/><line style="stroke:#000000;stroke-width:1;" x1="855.6475" x2="855.6475" y1="584.3594" y2="759.9375"/><line style="stroke:#000000;stroke-width:1;" x1="855.6475" x2="617.1099" y1="759.9375" y2="759.9375"/><polygon fill="#000000" points="627.1099,755.9375,617.1099,759.9375,627.1099,763.9375,623.1099,759.9375" style="stroke:#000000;stroke-width:1;"/><line style="stroke:#000000;stroke-width:1;" x1="605.1099" x2="605.1099" y1="442.4219" y2="462.4219"/><polygon fill="#000000" points="601.1099,452.4219,605.1099,462.4219,609.1099,452.4219,605.1099,456.4219" style="stroke:#000000;stroke-width:1;"/><line style="stroke:#000000;stroke-width:1;" x1="1133.6094" x2="1133.6094" y1="442.4219" y2="462.4219"/><polygon fill="#000000" points="1129.6094,452.4219,1133.6094,462.4219,1137.6094,452.4219,1133.6094,456.4219" style="stroke:#000000;stroke-width:1;"/><line style="stroke:#000000;stroke-width:1;" x1="552.3652" x2="605.1099" y1="360.8438" y2="360.8438"/><line style="stroke:#000000;stroke-width:1;" x1="605.1099" x2="605.1099" y1="360.8438" y2="408.4531"/><polygon fill="#000000" points="601.1099,398.4531,605.1099,408.4531,609.1099,398.4531,605.1099,402.4531" style="stroke:#000000;stroke-width:1;"/><text fill="#000000" font-family="Verdana" font-size="11" lengthAdjust="spacing" textLength="99.9775" x="605.1099" y="388.4565">Período específico</text><line style="stroke:#000000;stroke-width:1;" x1="692.7031" x2="1133.6094" y1="360.8438" y2="360.8438"/><line style="stroke:#000000;stroke-width:1;" x1="1133.6094" x2="1133.6094" y1="360.8438" y2="408.4531"/><polygon fill="#000000" points="1129.6094,398.4531,1133.6094,408.4531,1137.6094,398.4531,1133.6094,402.4531" style="stroke:#000000;stroke-width:1;"/><text fill="#000000" font-family="Verdana" font-size="11" lengthAdjust="spacing" textLength="116.1982" x="1133.6094" y="388.4565">Visão geral completa</text><line style="stroke:#000000;stroke-width:1;" x1="605.1099" x2="605.1099" y1="771.9375" y2="793.9375"/><line style="stroke:#000000;stroke-width:1;" x1="605.1099" x2="610.5342" y1="793.9375" y2="793.9375"/><polygon fill="#000000" points="600.5342,789.9375,610.5342,793.9375,600.5342,797.9375,604.5342,793.9375" style="stroke:#000000;stroke-width:1;"/><line style="stroke:#000000;stroke-width:1;" x1="1133.6094" x2="1133.6094" y1="496.3906" y2="793.9375"/><line style="stroke:#000000;stroke-width:1;" x1="1133.6094" x2="634.5342" y1="793.9375" y2="793.9375"/><polygon fill="#000000" points="644.5342,789.9375,634.5342,793.9375,644.5342,797.9375,640.5342,793.9375" style="stroke:#000000;stroke-width:1;"/><line style="stroke:#000000;stroke-width:1;" x1="622.5342" x2="622.5342" y1="328.8438" y2="348.8438"/><polygon fill="#000000" points="618.5342,338.8438,622.5342,348.8438,626.5342,338.8438,622.5342,342.8438" style="stroke:#000000;stroke-width:1;"/><line style="stroke:#000000;stroke-width:1;" x1="622.5342" x2="622.5342" y1="908.3086" y2="943.3086"/><polygon fill="#000000" points="618.5342,933.3086,622.5342,943.3086,626.5342,933.3086,622.5342,937.3086" style="stroke:#000000;stroke-width:1;"/><line style="stroke:#000000;stroke-width:1;" x1="622.5342" x2="622.5342" y1="849.9375" y2="874.3398"/><polygon fill="#000000" points="618.5342,864.3398,622.5342,874.3398,626.5342,864.3398,622.5342,868.3398" style="stroke:#000000;stroke-width:1;"/><line style="stroke:#000000;stroke-width:1;" x1="678.7141" x2="742.2871" y1="837.9375" y2="837.9375"/><polygon fill="#000000" points="738.2871,915.8086,742.2871,925.8086,746.2871,915.8086,742.2871,919.8086" style="stroke:#000000;stroke-width:1;"/><line style="stroke:#000000;stroke-width:1;" x1="742.2871" x2="742.2871" y1="837.9375" y2="1009.2773"/><line style="stroke:#000000;stroke-width:1;" x1="742.2871" x2="634.5342" y1="1009.2773" y2="1009.2773"/><polygon fill="#000000" points="644.5342,1005.2773,634.5342,1009.2773,644.5342,1013.2773,640.5342,1009.2773" style="stroke:#000000;stroke-width:1;"/><line style="stroke:#000000;stroke-width:1;" x1="622.5342" x2="622.5342" y1="977.2773" y2="997.2773"/><polygon fill="#000000" points="618.5342,987.2773,622.5342,997.2773,626.5342,987.2773,622.5342,991.2773" style="stroke:#000000;stroke-width:1;"/><line style="stroke:#000000;stroke-width:1;" x1="622.5342" x2="622.5342" y1="805.9375" y2="825.9375"/><polygon fill="#000000" points="618.5342,815.9375,622.5342,825.9375,626.5342,815.9375,622.5342,819.9375" style="stroke:#000000;stroke-width:1;"/><line style="stroke:#000000;stroke-width:1;" x1="1424.2402" x2="1424.2402" y1="220.9063" y2="240.9063"/><polygon fill="#000000" points="1420.2402,230.9063,1424.2402,240.9063,1428.2402,230.9063,1424.2402,234.9063" style="stroke:#000000;stroke-width:1;"/><line style="stroke:#000000;stroke-width:1;" x1="943.2463" x2="622.5342" y1="164.9375" y2="164.9375"/><line style="stroke:#000000;stroke-width:1;" x1="622.5342" x2="622.5342" y1="164.9375" y2="186.9375"/><polygon fill="#000000" points="618.5342,176.9375,622.5342,186.9375,626.5342,176.9375,622.5342,180.9375" style="stroke:#000000;stroke-width:1;"/><line style="stroke:#000000;stroke-width:1;" x1="1113.5281" x2="1424.2402" y1="164.9375" y2="164.9375"/><line style="stroke:#000000;stroke-width:1;" x1="1424.2402" x2="1424.2402" y1="164.9375" y2="186.9375"/><polygon fill="#000000" points="1420.2402,176.9375,1424.2402,186.9375,1428.2402,176.9375,1424.2402,180.9375" style="stroke:#000000;stroke-width:1;"/><line style="stroke:#000000;stroke-width:1;" x1="622.5342" x2="622.5342" y1="1021.2773" y2="1039.2773"/><line style="stroke:#000000;stroke-width:1;" x1="622.5342" x2="1016.3872" y1="1039.2773" y2="1039.2773"/><polygon fill="#000000" points="1006.3872,1035.2773,1016.3872,1039.2773,1006.3872,1043.2773,1010.3872,1039.2773" style="stroke:#000000;stroke-width:1;"/><line style="stroke:#000000;stroke-width:1;" x1="1424.2402" x2="1424.2402" y1="274.875" y2="1039.2773"/><line style="stroke:#000000;stroke-width:1;" x1="1424.2402" x2="1040.3872" y1="1039.2773" y2="1039.2773"/><polygon fill="#000000" points="1050.3872,1035.2773,1040.3872,1039.2773,1050.3872,1043.2773,1046.3872,1039.2773" style="stroke:#000000;stroke-width:1;"/><line style="stroke:#000000;stroke-width:1;" x1="1028.3872" x2="1028.3872" y1="132.9375" y2="152.9375"/><polygon fill="#000000" points="1024.3872,142.9375,1028.3872,152.9375,1032.3872,142.9375,1028.3872,146.9375" style="stroke:#000000;stroke-width:1;"/><line style="stroke:#000000;stroke-width:1;" x1="1028.3872" x2="1028.3872" y1="1051.2773" y2="1071.2773"/><polygon fill="#000000" points="1024.3872,1061.2773,1028.3872,1071.2773,1032.3872,1061.2773,1028.3872,1065.2773" style="stroke:#000000;stroke-width:1;"/><!--SRC=[TLIzRjim4Dxz5DSjcRexWuUa1Je4BPeq-vKwoGUGF9Qar21l4tGeEdWgkdJLY_L8IROSf81XoER7xuz7lSbxSWJ18ljDoXZpPhEzxoFhCw2Xb12C-4pZtqPWht-FloCRkLBOdVuYXp1Gv9ODGiCfYEUlRBd1XXJ3BLnSlx8TwB5itbs2wdkuIEmkDm3RQuoHEenWsU-LK40LWghfshj7POuGA8u7QIIjw99AAMBnxN5G4aLQXCoEb8mg8dtdRFPmyMdcW4IM38l7HdR5WC54gsLAWSnuq71ILjS66yfezvIAnyLIrG0eeM_7GyDuihYKCnu6iYzZL-OvNYjPqjj6JE_8woCq2EEl80PdzbEAUmwYFi1LhTt2D6LuNtW0VUOEqxAaChUISbJ_7LezDYpxsM57FbsTG5g0uwnkZBY04SUVumyfPAJMA0WVmPFOpSdkwb1MgdEuTIpkM1la9wr-BRtuqo-VJ6IL_gCjV-lHQzEh4iyTF6W7z5_vpnIYDFsJMXXcuAhM2KI-cOgTQYPRQBtcVdb26CXZqi5ypAN-OZBp80lFCO73QCuTQTD1OguzJd0LvNPp7Bm7JgNeZYBQshtLAPidRw6Db7fNpptNMw2VuvMOIBStfBV0A3P4zeO3SfhwR2Kwd1ejqBF8PMg_f7vyZYnWfQjNukMSRZ-s5CbGX8Hsm3eW0YqEeYNC5Poc1nkkbok2bup5Pqg2l6YNvESrRp_uQZ7gUTFglQDvncSWL-ecFuWTk8vHVI_SzTgNgacVOob3wdofiMFrU3utitJA4lu1]--></g></svg>