<svg xmlns="http://www.w3.org/2000/svg" viewBox="12 12 1031.396728515625 677.4149780273438"><g xmlns="http://www.w3.org/2000/svg"><!--class PontoTuristico--><g class="entity" data-entity="PontoTuristico" data-source-line="3" data-uid="ent0002" id="entity_PontoTuristico"><rect fill="#FFFFFF" height="206.9688" rx="2.5" ry="2.5" style="stroke:#000000;stroke-width:1;" width="320.3242" x="636.27" y="247.08"></rect><ellipse cx="742.7114" cy="261.08" fill="#FFFFFF" rx="9" ry="9" style="stroke:#000000;stroke-width:1;"></ellipse><path d="M745.6802,266.7206 Q745.102,267.0175 744.4614,267.1581 Q743.8208,267.3144 743.1177,267.3144 Q740.6177,267.3144 739.2895,265.6738 Q737.977,264.0175 737.977,260.8925 Q737.977,257.7675 739.2895,256.1113 Q740.6177,254.455 743.1177,254.455 Q743.8208,254.455 744.4614,254.6112 Q745.1177,254.7675 745.6802,255.0644 L745.6802,257.7831 Q745.0552,257.205 744.4614,256.9394 Q743.8677,256.6581 743.2427,256.6581 Q741.8989,256.6581 741.2114,257.7363 Q740.5239,258.7988 740.5239,260.8925 Q740.5239,262.9863 741.2114,264.0644 Q741.8989,265.1269 743.2427,265.1269 Q743.8677,265.1269 744.4614,264.8613 Q745.0552,264.58 745.6802,264.0019 L745.6802,266.7206 Z " fill="#000000"></path><text fill="#000000" font-family="Verdana" font-size="14" lengthAdjust="spacing" textLength="99.9414" x="760.2114" y="265.9267">PontoTuristico</text><line style="stroke:#000000;stroke-width:1;" x1="637.27" x2="955.5942" y1="275.08" y2="275.08"></line><rect fill="none" height="6" style="stroke:#000000;stroke-width:1;" width="6" x="644.27" y="285.7284"></rect><text fill="#000000" font-family="Verdana" font-size="14" lengthAdjust="spacing" textLength="72.3037" x="654.27" y="292.0751">id: Integer</text><rect fill="none" height="6" style="stroke:#000000;stroke-width:1;" width="6" x="644.27" y="302.0253"></rect><text fill="#000000" font-family="Verdana" font-size="14" lengthAdjust="spacing" textLength="90.6377" x="654.27" y="308.372">nome: String</text><rect fill="none" height="6" style="stroke:#000000;stroke-width:1;" width="6" x="644.27" y="318.3222"></rect><text fill="#000000" font-family="Verdana" font-size="14" lengthAdjust="spacing" textLength="107.085" x="654.27" y="324.6689">descricao: Text</text><rect fill="none" height="6" style="stroke:#000000;stroke-width:1;" width="6" x="644.27" y="334.6191"></rect><text fill="#000000" font-family="Verdana" font-size="14" lengthAdjust="spacing" textLength="119.9639" x="654.27" y="340.9657">latitude: Decimal</text><rect fill="none" height="6" style="stroke:#000000;stroke-width:1;" width="6" x="644.27" y="350.9159"></rect><text fill="#000000" font-family="Verdana" font-size="14" lengthAdjust="spacing" textLength="132.2207" x="654.27" y="357.2626">longitude: Decimal</text><rect fill="none" height="6" style="stroke:#000000;stroke-width:1;" width="6" x="644.27" y="367.2128"></rect><text fill="#000000" font-family="Verdana" font-size="14" lengthAdjust="spacing" textLength="143.3564" x="654.27" y="373.5595">categoria: Categoria</text><rect fill="none" height="6" style="stroke:#000000;stroke-width:1;" width="6" x="644.27" y="383.5097"></rect><text fill="#000000" font-family="Verdana" font-size="14" lengthAdjust="spacing" textLength="100.666" x="654.27" y="389.8564">ativo: Boolean</text><rect fill="none" height="6" style="stroke:#000000;stroke-width:1;" width="6" x="644.27" y="399.8066"></rect><text fill="#000000" font-family="Verdana" font-size="14" lengthAdjust="spacing" textLength="146.0225" x="654.27" y="406.1532">createdAt: DateTime</text><line style="stroke:#000000;stroke-width:1;" x1="637.27" x2="955.5942" y1="413.455" y2="413.455"></line><ellipse cx="647.27" cy="427.1034" fill="#FFFFFF" rx="3" ry="3" style="stroke:#000000;stroke-width:1;"></ellipse><text fill="#000000" font-family="Verdana" font-size="14" lengthAdjust="spacing" textLength="218.1621" x="654.27" y="430.4501">visualizar360(): ConteudoMidia</text><ellipse cx="647.27" cy="443.4003" fill="#FFFFFF" rx="3" ry="3" style="stroke:#000000;stroke-width:1;"></ellipse><text fill="#000000" font-family="Verdana" font-size="14" lengthAdjust="spacing" textLength="296.3242" x="654.27" y="446.747">obterHistorico(): List&lt;ConteudoHistorico&gt;</text></g><!--class Estabelecimento--><g class="entity" data-entity="Estabelecimento" data-source-line="16" data-uid="ent0003" id="entity_Estabelecimento"><rect fill="#FFFFFF" height="190.6719" rx="2.5" ry="2.5" style="stroke:#000000;stroke-width:1;" width="221.3398" x="379.77" y="255.22"></rect><ellipse cx="428.2016" cy="269.22" fill="#FFFFFF" rx="9" ry="9" style="stroke:#000000;stroke-width:1;"></ellipse><path d="M431.1704,274.8606 Q430.5923,275.1575 429.9516,275.2981 Q429.311,275.4544 428.6079,275.4544 Q426.1079,275.4544 424.7798,273.8137 Q423.4673,272.1575 423.4673,269.0325 Q423.4673,265.9075 424.7798,264.2512 Q426.1079,262.595 428.6079,262.595 Q429.311,262.595 429.9516,262.7512 Q430.6079,262.9075 431.1704,263.2044 L431.1704,265.9231 Q430.5454,265.345 429.9516,265.0794 Q429.3579,264.7981 428.7329,264.7981 Q427.3891,264.7981 426.7016,265.8762 Q426.0141,266.9387 426.0141,269.0325 Q426.0141,271.1262 426.7016,272.2044 Q427.3891,273.2669 428.7329,273.2669 Q429.3579,273.2669 429.9516,273.0012 Q430.5454,272.72 431.1704,272.1419 L431.1704,274.8606 Z " fill="#000000"></path><text fill="#000000" font-family="Verdana" font-size="14" lengthAdjust="spacing" textLength="116.9766" x="445.7016" y="274.0667">Estabelecimento</text><line style="stroke:#000000;stroke-width:1;" x1="380.77" x2="600.1098" y1="283.22" y2="283.22"></line><rect fill="none" height="6" style="stroke:#000000;stroke-width:1;" width="6" x="387.77" y="293.8684"></rect><text fill="#000000" font-family="Verdana" font-size="14" lengthAdjust="spacing" textLength="72.3037" x="397.77" y="300.2151">id: Integer</text><rect fill="none" height="6" style="stroke:#000000;stroke-width:1;" width="6" x="387.77" y="310.1653"></rect><text fill="#000000" font-family="Verdana" font-size="14" lengthAdjust="spacing" textLength="90.6377" x="397.77" y="316.512">nome: String</text><rect fill="none" height="6" style="stroke:#000000;stroke-width:1;" width="6" x="387.77" y="326.4622"></rect><text fill="#000000" font-family="Verdana" font-size="14" lengthAdjust="spacing" textLength="182.8682" x="397.77" y="332.8089">tipo: TipoEstabelecimento</text><rect fill="none" height="6" style="stroke:#000000;stroke-width:1;" width="6" x="387.77" y="342.7591"></rect><text fill="#000000" font-family="Verdana" font-size="14" lengthAdjust="spacing" textLength="116.5664" x="397.77" y="349.1057">endereco: String</text><rect fill="none" height="6" style="stroke:#000000;stroke-width:1;" width="6" x="387.77" y="359.0559"></rect><text fill="#000000" font-family="Verdana" font-size="14" lengthAdjust="spacing" textLength="108.5342" x="397.77" y="365.4026">telefone: String</text><rect fill="none" height="6" style="stroke:#000000;stroke-width:1;" width="6" x="387.77" y="375.3528"></rect><text fill="#000000" font-family="Verdana" font-size="14" lengthAdjust="spacing" textLength="165.04" x="397.77" y="381.6995">status: StatusValidacao</text><rect fill="none" height="6" style="stroke:#000000;stroke-width:1;" width="6" x="387.77" y="391.6497"></rect><text fill="#000000" font-family="Verdana" font-size="14" lengthAdjust="spacing" textLength="159.3662" x="397.77" y="397.9964">validadoEm: DateTime</text><line style="stroke:#000000;stroke-width:1;" x1="380.77" x2="600.1098" y1="405.2981" y2="405.2981"></line><ellipse cx="390.77" cy="418.9466" fill="#FFFFFF" rx="3" ry="3" style="stroke:#000000;stroke-width:1;"></ellipse><text fill="#000000" font-family="Verdana" font-size="14" lengthAdjust="spacing" textLength="167.5215" x="397.77" y="422.2932">soliciarValidacao(): void</text><ellipse cx="390.77" cy="435.2434" fill="#FFFFFF" rx="3" ry="3" style="stroke:#000000;stroke-width:1;"></ellipse><text fill="#000000" font-family="Verdana" font-size="14" lengthAdjust="spacing" textLength="197.3398" x="397.77" y="438.5901">atualizarInformacoes(): void</text></g><!--class ConteudoHistorico--><g class="entity" data-entity="ConteudoHistorico" data-source-line="28" data-uid="ent0004" id="entity_ConteudoHistorico"><rect fill="#FFFFFF" height="158.0781" rx="2.5" ry="2.5" style="stroke:#000000;stroke-width:1;" width="192.0479" x="674.41" y="523.19"></rect><ellipse cx="703.0396" cy="537.19" fill="#FFFFFF" rx="9" ry="9" style="stroke:#000000;stroke-width:1;"></ellipse><path d="M706.0083,542.8306 Q705.4302,543.1275 704.7896,543.2681 Q704.149,543.4244 703.4458,543.4244 Q700.9458,543.4244 699.6177,541.7837 Q698.3052,540.1275 698.3052,537.0025 Q698.3052,533.8775 699.6177,532.2212 Q700.9458,530.565 703.4458,530.565 Q704.149,530.565 704.7896,530.7212 Q705.4458,530.8775 706.0083,531.1744 L706.0083,533.8931 Q705.3833,533.315 704.7896,533.0494 Q704.1958,532.7681 703.5708,532.7681 Q702.2271,532.7681 701.5396,533.8462 Q700.8521,534.9087 700.8521,537.0025 Q700.8521,539.0962 701.5396,540.1744 Q702.2271,541.2369 703.5708,541.2369 Q704.1958,541.2369 704.7896,540.9712 Q705.3833,540.69 706.0083,540.1119 L706.0083,542.8306 Z " fill="#000000"></path><text fill="#000000" font-family="Verdana" font-size="14" lengthAdjust="spacing" textLength="129.3154" x="718.5128" y="542.0367">ConteudoHistorico</text><line style="stroke:#000000;stroke-width:1;" x1="675.41" x2="865.4579" y1="551.19" y2="551.19"></line><rect fill="none" height="6" style="stroke:#000000;stroke-width:1;" width="6" x="682.41" y="561.8384"></rect><text fill="#000000" font-family="Verdana" font-size="14" lengthAdjust="spacing" textLength="72.3037" x="692.41" y="568.1851">id: Integer</text><rect fill="none" height="6" style="stroke:#000000;stroke-width:1;" width="6" x="682.41" y="578.1353"></rect><text fill="#000000" font-family="Verdana" font-size="14" lengthAdjust="spacing" textLength="104.1113" x="692.41" y="584.482">periodo: String</text><rect fill="none" height="6" style="stroke:#000000;stroke-width:1;" width="6" x="682.41" y="594.4322"></rect><text fill="#000000" font-family="Verdana" font-size="14" lengthAdjust="spacing" textLength="122.5889" x="692.41" y="600.7789">anoInicio: Integer</text><rect fill="none" height="6" style="stroke:#000000;stroke-width:1;" width="6" x="682.41" y="610.7291"></rect><text fill="#000000" font-family="Verdana" font-size="14" lengthAdjust="spacing" textLength="111.125" x="692.41" y="617.0757">anoFim: Integer</text><rect fill="none" height="6" style="stroke:#000000;stroke-width:1;" width="6" x="682.41" y="627.0259"></rect><text fill="#000000" font-family="Verdana" font-size="14" lengthAdjust="spacing" textLength="107.085" x="692.41" y="633.3726">descricao: Text</text><rect fill="none" height="6" style="stroke:#000000;stroke-width:1;" width="6" x="682.41" y="643.3228"></rect><text fill="#000000" font-family="Verdana" font-size="14" lengthAdjust="spacing" textLength="164.9443" x="692.41" y="649.6695">ordemTimeline: Integer</text><line style="stroke:#000000;stroke-width:1;" x1="675.41" x2="865.4579" y1="656.9712" y2="656.9712"></line><ellipse cx="685.41" cy="670.6197" fill="#FFFFFF" rx="3" ry="3" style="stroke:#000000;stroke-width:1;"></ellipse><text fill="#000000" font-family="Verdana" font-size="14" lengthAdjust="spacing" textLength="168.0479" x="692.41" y="673.9664">exibirNaTimeline(): void</text></g><!--class ConteudoMidia--><g class="entity" data-entity="ConteudoMidia" data-source-line="38" data-uid="ent0005" id="entity_ConteudoMidia"><rect fill="#FFFFFF" height="174.375" rx="2.5" ry="2.5" style="stroke:#000000;stroke-width:1;" width="142.1592" x="471.36" y="515.04"></rect><ellipse cx="488.497" cy="529.04" fill="#FFFFFF" rx="9" ry="9" style="stroke:#000000;stroke-width:1;"></ellipse><path d="M491.4658,534.6806 Q490.8876,534.9775 490.247,535.1181 Q489.6064,535.2744 488.9033,535.2744 Q486.4033,535.2744 485.0751,533.6338 Q483.7626,531.9775 483.7626,528.8525 Q483.7626,525.7275 485.0751,524.0713 Q486.4033,522.415 488.9033,522.415 Q489.6064,522.415 490.247,522.5713 Q490.9033,522.7275 491.4658,523.0244 L491.4658,525.7431 Q490.8408,525.165 490.247,524.8994 Q489.6533,524.6181 489.0283,524.6181 Q487.6845,524.6181 486.997,525.6963 Q486.3095,526.7588 486.3095,528.8525 Q486.3095,530.9463 486.997,532.0244 Q487.6845,533.0869 489.0283,533.0869 Q489.6533,533.0869 490.247,532.8213 Q490.8408,532.54 491.4658,531.9619 L491.4658,534.6806 Z " fill="#000000"></path><text fill="#000000" font-family="Verdana" font-size="14" lengthAdjust="spacing" textLength="104.9658" x="501.4163" y="533.8867">ConteudoMidia</text><line style="stroke:#000000;stroke-width:1;" x1="472.36" x2="612.5192" y1="543.04" y2="543.04"></line><rect fill="none" height="6" style="stroke:#000000;stroke-width:1;" width="6" x="479.36" y="553.6884"></rect><text fill="#000000" font-family="Verdana" font-size="14" lengthAdjust="spacing" textLength="72.3037" x="489.36" y="560.0351">id: Integer</text><rect fill="none" height="6" style="stroke:#000000;stroke-width:1;" width="6" x="479.36" y="569.9853"></rect><text fill="#000000" font-family="Verdana" font-size="14" lengthAdjust="spacing" textLength="103.2158" x="489.36" y="576.332">tipo: TipoMidia</text><rect fill="none" height="6" style="stroke:#000000;stroke-width:1;" width="6" x="479.36" y="586.2822"></rect><text fill="#000000" font-family="Verdana" font-size="14" lengthAdjust="spacing" textLength="69.4668" x="489.36" y="592.6289">url: String</text><rect fill="none" height="6" style="stroke:#000000;stroke-width:1;" width="6" x="479.36" y="602.5791"></rect><text fill="#000000" font-family="Verdana" font-size="14" lengthAdjust="spacing" textLength="100.4951" x="489.36" y="608.9257">urlCDN: String</text><rect fill="none" height="6" style="stroke:#000000;stroke-width:1;" width="6" x="479.36" y="618.8759"></rect><text fill="#000000" font-family="Verdana" font-size="14" lengthAdjust="spacing" textLength="105.8887" x="489.36" y="625.2226">tamanho: Long</text><rect fill="none" height="6" style="stroke:#000000;stroke-width:1;" width="6" x="479.36" y="635.1728"></rect><text fill="#000000" font-family="Verdana" font-size="14" lengthAdjust="spacing" textLength="106.4697" x="489.36" y="641.5195">formato: String</text><line style="stroke:#000000;stroke-width:1;" x1="472.36" x2="612.5192" y1="648.8213" y2="648.8213"></line><ellipse cx="482.36" cy="662.4697" fill="#FFFFFF" rx="3" ry="3" style="stroke:#000000;stroke-width:1;"></ellipse><text fill="#000000" font-family="Verdana" font-size="14" lengthAdjust="spacing" textLength="118.1592" x="489.36" y="665.8164">processar(): void</text><ellipse cx="482.36" cy="678.7666" fill="#FFFFFF" rx="3" ry="3" style="stroke:#000000;stroke-width:1;"></ellipse><text fill="#000000" font-family="Verdana" font-size="14" lengthAdjust="spacing" textLength="106.873" x="489.36" y="682.1132">otimizar(): void</text></g><!--class Usuario--><g class="entity" data-entity="Usuario" data-source-line="49" data-uid="ent0006" id="entity_Usuario"><rect fill="#FFFFFF" height="158.0781" rx="2.5" ry="2.5" style="stroke:#000000;stroke-width:1;" width="322.7715" x="635.05" y="12"></rect><ellipse cx="766.0837" cy="26" fill="#FFFFFF" rx="9" ry="9" style="stroke:#000000;stroke-width:1;"></ellipse><path d="M769.0524,31.6406 Q768.4743,31.9375 767.8337,32.0781 Q767.1931,32.2344 766.4899,32.2344 Q763.9899,32.2344 762.6618,30.5938 Q761.3493,28.9375 761.3493,25.8125 Q761.3493,22.6875 762.6618,21.0313 Q763.9899,19.375 766.4899,19.375 Q767.1931,19.375 767.8337,19.5313 Q768.4899,19.6875 769.0524,19.9844 L769.0524,22.7031 Q768.4274,22.125 767.8337,21.8594 Q767.2399,21.5781 766.6149,21.5781 Q765.2712,21.5781 764.5837,22.6563 Q763.8962,23.7188 763.8962,25.8125 Q763.8962,27.9063 764.5837,28.9844 Q765.2712,30.0469 766.6149,30.0469 Q767.2399,30.0469 767.8337,29.7813 Q768.4274,29.5 769.0524,28.9219 L769.0524,31.6406 Z " fill="#000000"></path><text fill="#000000" font-family="Verdana" font-size="14" lengthAdjust="spacing" textLength="53.2041" x="783.5837" y="30.8467">Usuario</text><line style="stroke:#000000;stroke-width:1;" x1="636.05" x2="956.8215" y1="40" y2="40"></line><rect fill="none" height="6" style="stroke:#000000;stroke-width:1;" width="6" x="643.05" y="50.6484"></rect><text fill="#000000" font-family="Verdana" font-size="14" lengthAdjust="spacing" textLength="72.3037" x="653.05" y="56.9951">id: Integer</text><rect fill="none" height="6" style="stroke:#000000;stroke-width:1;" width="6" x="643.05" y="66.9453"></rect><text fill="#000000" font-family="Verdana" font-size="14" lengthAdjust="spacing" textLength="90.6377" x="653.05" y="73.292">nome: String</text><rect fill="none" height="6" style="stroke:#000000;stroke-width:1;" width="6" x="643.05" y="83.2422"></rect><text fill="#000000" font-family="Verdana" font-size="14" lengthAdjust="spacing" textLength="89.5576" x="653.05" y="89.5889">email: String</text><rect fill="none" height="6" style="stroke:#000000;stroke-width:1;" width="6" x="643.05" y="99.5391"></rect><text fill="#000000" font-family="Verdana" font-size="14" lengthAdjust="spacing" textLength="119.0957" x="653.05" y="105.8857">tipo: TipoUsuario</text><rect fill="none" height="6" style="stroke:#000000;stroke-width:1;" width="6" x="643.05" y="115.8359"></rect><text fill="#000000" font-family="Verdana" font-size="14" lengthAdjust="spacing" textLength="146.0225" x="653.05" y="122.1826">createdAt: DateTime</text><line style="stroke:#000000;stroke-width:1;" x1="636.05" x2="956.8215" y1="129.4844" y2="129.4844"></line><ellipse cx="646.05" cy="143.1328" fill="#FFFFFF" rx="3" ry="3" style="stroke:#000000;stroke-width:1;"></ellipse><text fill="#000000" font-family="Verdana" font-size="14" lengthAdjust="spacing" textLength="148.6201" x="653.05" y="146.4795">autenticar(): Boolean</text><ellipse cx="646.05" cy="159.4297" fill="#FFFFFF" rx="3" ry="3" style="stroke:#000000;stroke-width:1;"></ellipse><text fill="#000000" font-family="Verdana" font-size="14" lengthAdjust="spacing" textLength="298.7715" x="653.05" y="162.7764">salvarFavorito(ponto: PontoTuristico): void</text></g><!--class Categoria--><g class="entity" data-entity="Categoria" data-source-line="59" data-uid="ent0007" id="entity_Categoria"><rect fill="#FFFFFF" height="109.1875" rx="2.5" ry="2.5" style="stroke:#000000;stroke-width:1;" width="141.9268" x="901.47" y="547.64"></rect><ellipse cx="935.0768" cy="561.64" fill="#FFFFFF" rx="9" ry="9" style="stroke:#000000;stroke-width:1;"></ellipse><path d="M938.0456,567.2806 Q937.4675,567.5775 936.8268,567.7181 Q936.1862,567.8744 935.4831,567.8744 Q932.9831,567.8744 931.655,566.2338 Q930.3425,564.5775 930.3425,561.4525 Q930.3425,558.3275 931.655,556.6713 Q932.9831,555.015 935.4831,555.015 Q936.1862,555.015 936.8268,555.1713 Q937.4831,555.3275 938.0456,555.6244 L938.0456,558.3431 Q937.4206,557.765 936.8268,557.4994 Q936.2331,557.2181 935.6081,557.2181 Q934.2643,557.2181 933.5768,558.2963 Q932.8893,559.3588 932.8893,561.4525 Q932.8893,563.5463 933.5768,564.6244 Q934.2643,565.6869 935.6081,565.6869 Q936.2331,565.6869 936.8268,565.4213 Q937.4206,565.14 938.0456,564.5619 L938.0456,567.2806 Z " fill="#000000"></path><text fill="#000000" font-family="Verdana" font-size="14" lengthAdjust="spacing" textLength="68.1338" x="951.6561" y="566.4867">Categoria</text><line style="stroke:#000000;stroke-width:1;" x1="902.47" x2="1042.3968" y1="575.64" y2="575.64"></line><rect fill="none" height="6" style="stroke:#000000;stroke-width:1;" width="6" x="909.47" y="586.2884"></rect><text fill="#000000" font-family="Verdana" font-size="14" lengthAdjust="spacing" textLength="72.3037" x="919.47" y="592.6351">id: Integer</text><rect fill="none" height="6" style="stroke:#000000;stroke-width:1;" width="6" x="909.47" y="602.5853"></rect><text fill="#000000" font-family="Verdana" font-size="14" lengthAdjust="spacing" textLength="90.6377" x="919.47" y="608.932">nome: String</text><rect fill="none" height="6" style="stroke:#000000;stroke-width:1;" width="6" x="909.47" y="618.8822"></rect><text fill="#000000" font-family="Verdana" font-size="14" lengthAdjust="spacing" textLength="117.9268" x="919.47" y="625.2289">descricao: String</text><rect fill="none" height="6" style="stroke:#000000;stroke-width:1;" width="6" x="909.47" y="635.1791"></rect><text fill="#000000" font-family="Verdana" font-size="14" lengthAdjust="spacing" textLength="88.5869" x="919.47" y="641.5257">icone: String</text><line style="stroke:#000000;stroke-width:1;" x1="902.47" x2="1042.3968" y1="648.8275" y2="648.8275"></line></g><!--class TipoEstabelecimento--><g class="entity" data-entity="TipoEstabelecimento" data-source-line="66" data-uid="ent0008" id="entity_TipoEstabelecimento"><rect fill="#FFFFFF" height="125.4844" rx="2.5" ry="2.5" style="stroke:#000000;stroke-width:1;" width="174.8701" x="12" y="28.29"></rect><ellipse cx="25" cy="42.29" fill="#FFFFFF" rx="9" ry="9" style="stroke:#000000;stroke-width:1;"></ellipse><path d="M29.1094,48.29 L21.3906,48.29 L21.3906,35.8994 L29.1094,35.8994 L29.1094,38.0556 L23.8438,38.0556 L23.8438,40.7275 L28.6094,40.7275 L28.6094,42.8837 L23.8438,42.8837 L23.8438,46.1337 L29.1094,46.1337 L29.1094,48.29 Z " fill="#000000"></path><text fill="#000000" font-family="Verdana" font-size="14" lengthAdjust="spacing" textLength="146.8701" x="37" y="47.1367">TipoEstabelecimento</text><line style="stroke:#000000;stroke-width:1;" x1="13" x2="185.8701" y1="56.29" y2="56.29"></line><text fill="#000000" font-family="Verdana" font-size="14" lengthAdjust="spacing" textLength="103.0107" x="18" y="73.2851">RESTAURANTE</text><text fill="#000000" font-family="Verdana" font-size="14" lengthAdjust="spacing" textLength="95.8877" x="18" y="89.582">LANCHONETE</text><text fill="#000000" font-family="Verdana" font-size="14" lengthAdjust="spacing" textLength="28.9092" x="18" y="105.8789">BAR</text><text fill="#000000" font-family="Verdana" font-size="14" lengthAdjust="spacing" textLength="46.7441" x="18" y="122.1757">HOTEL</text><text fill="#000000" font-family="Verdana" font-size="14" lengthAdjust="spacing" textLength="68.5303" x="18" y="138.4726">POUSADA</text><line style="stroke:#000000;stroke-width:1;" x1="13" x2="185.8701" y1="145.7744" y2="145.7744"></line></g><!--class StatusValidacao--><g class="entity" data-entity="StatusValidacao" data-source-line="74" data-uid="ent0009" id="entity_StatusValidacao"><rect fill="#FFFFFF" height="92.8906" rx="2.5" ry="2.5" style="stroke:#000000;stroke-width:1;" width="140.8545" x="222.01" y="44.59"></rect><ellipse cx="235.01" cy="58.59" fill="#FFFFFF" rx="9" ry="9" style="stroke:#000000;stroke-width:1;"></ellipse><path d="M239.1194,64.59 L231.4006,64.59 L231.4006,52.1994 L239.1194,52.1994 L239.1194,54.3556 L233.8538,54.3556 L233.8538,57.0275 L238.6194,57.0275 L238.6194,59.1837 L233.8538,59.1837 L233.8538,62.4337 L239.1194,62.4337 L239.1194,64.59 Z " fill="#000000"></path><text fill="#000000" font-family="Verdana" font-size="14" lengthAdjust="spacing" textLength="112.8545" x="247.01" y="63.4367">StatusValidacao</text><line style="stroke:#000000;stroke-width:1;" x1="223.01" x2="361.8645" y1="72.59" y2="72.59"></line><text fill="#000000" font-family="Verdana" font-size="14" lengthAdjust="spacing" textLength="75.2568" x="228.01" y="89.5851">PENDENTE</text><text fill="#000000" font-family="Verdana" font-size="14" lengthAdjust="spacing" textLength="79.7207" x="228.01" y="105.882">APROVADO</text><text fill="#000000" font-family="Verdana" font-size="14" lengthAdjust="spacing" textLength="75.6055" x="228.01" y="122.1789">REJEITADO</text><line style="stroke:#000000;stroke-width:1;" x1="223.01" x2="361.8645" y1="129.4806" y2="129.4806"></line></g><!--class TipoMidia--><g class="entity" data-entity="TipoMidia" data-source-line="80" data-uid="ent0010" id="entity_TipoMidia"><rect fill="#FFFFFF" height="109.1875" rx="2.5" ry="2.5" style="stroke:#000000;stroke-width:1;" width="124.0273" x="37.42" y="295.97"></rect><ellipse cx="63.3843" cy="309.97" fill="#FFFFFF" rx="9" ry="9" style="stroke:#000000;stroke-width:1;"></ellipse><path d="M67.4937,315.97 L59.7749,315.97 L59.7749,303.5794 L67.4937,303.5794 L67.4937,305.7356 L62.2281,305.7356 L62.2281,308.4075 L66.9937,308.4075 L66.9937,310.5637 L62.2281,310.5637 L62.2281,313.8137 L67.4937,313.8137 L67.4937,315.97 Z " fill="#000000"></path><text fill="#000000" font-family="Verdana" font-size="14" lengthAdjust="spacing" textLength="67.2178" x="78.2653" y="314.8167">TipoMidia</text><line style="stroke:#000000;stroke-width:1;" x1="38.42" x2="160.4473" y1="323.97" y2="323.97"></line><text fill="#000000" font-family="Verdana" font-size="14" lengthAdjust="spacing" textLength="72.3652" x="43.42" y="340.9651">FOTO_360</text><text fill="#000000" font-family="Verdana" font-size="14" lengthAdjust="spacing" textLength="78.0732" x="43.42" y="357.262">VIDEO_360</text><text fill="#000000" font-family="Verdana" font-size="14" lengthAdjust="spacing" textLength="106.3193" x="43.42" y="373.5589">FOTO_NORMAL</text><text fill="#000000" font-family="Verdana" font-size="14" lengthAdjust="spacing" textLength="112.0273" x="43.42" y="389.8557">VIDEO_NORMAL</text><line style="stroke:#000000;stroke-width:1;" x1="38.42" x2="160.4473" y1="397.1575" y2="397.1575"></line></g><!--class TipoUsuario--><g class="entity" data-entity="TipoUsuario" data-source-line="87" data-uid="ent0011" id="entity_TipoUsuario"><rect fill="#FFFFFF" height="92.8906" rx="2.5" ry="2.5" style="stroke:#000000;stroke-width:1;" width="147.8301" x="196.52" y="304.12"></rect><ellipse cx="226.0496" cy="318.12" fill="#FFFFFF" rx="9" ry="9" style="stroke:#000000;stroke-width:1;"></ellipse><path d="M230.159,324.12 L222.4402,324.12 L222.4402,311.7294 L230.159,311.7294 L230.159,313.8856 L224.8933,313.8856 L224.8933,316.5575 L229.659,316.5575 L229.659,318.7137 L224.8933,318.7137 L224.8933,321.9637 L230.159,321.9637 L230.159,324.12 Z " fill="#000000"></path><text fill="#000000" font-family="Verdana" font-size="14" lengthAdjust="spacing" textLength="83.0977" x="241.7228" y="322.9667">TipoUsuario</text><line style="stroke:#000000;stroke-width:1;" x1="197.52" x2="343.3501" y1="332.12" y2="332.12"></line><text fill="#000000" font-family="Verdana" font-size="14" lengthAdjust="spacing" textLength="59.6709" x="202.52" y="349.1151">TURISTA</text><text fill="#000000" font-family="Verdana" font-size="14" lengthAdjust="spacing" textLength="119.4375" x="202.52" y="365.412">ADMINISTRADOR</text><text fill="#000000" font-family="Verdana" font-size="14" lengthAdjust="spacing" textLength="135.8301" x="202.52" y="381.7089">ESTABELECIMENTO</text><line style="stroke:#000000;stroke-width:1;" x1="197.52" x2="343.3501" y1="389.0106" y2="389.0106"></line></g><!--link PontoTuristico to ConteudoHistorico--><g class="link" data-entity-1="PontoTuristico" data-entity-2="ConteudoHistorico" data-source-line="93" data-uid="lnk12" id="link_PontoTuristico_ConteudoHistorico"><path codeline="93" d="M784.9197,462.1468 C782.5197,485.1468 782.7125,483.3266 780.4425,505.1466" fill="none" id="PontoTuristico-ConteudoHistorico" style="stroke:#000000;stroke-width:1;"></path><line style="stroke:#000000;stroke-width:1;" x1="781.3565" x2="789.3133" y1="457.7533" y2="458.5835"></line><line style="stroke:#000000;stroke-width:1;" x1="781.0451" x2="789.0019" y1="460.7371" y2="461.5673"></line><line style="stroke:#000000;stroke-width:1;" x1="784.9197" x2="785.75" y1="462.1468" y2="454.19"></line><line style="stroke:#000000;stroke-width:1;" x1="779.4078" x2="784.5478" y1="515.0929" y2="523.6708"></line><line style="stroke:#000000;stroke-width:1;" x1="779.4078" x2="772.6122" y1="515.0929" y2="522.4292"></line><line style="stroke:#000000;stroke-width:1;" x1="779.4078" x2="778.58" y1="515.0929" y2="523.05"></line><ellipse cx="780.0286" cy="509.1252" fill="none" rx="4" ry="4" style="stroke:#000000;stroke-width:1;"></ellipse></g><!--link PontoTuristico to ConteudoMidia--><g class="link" data-entity-1="PontoTuristico" data-entity-2="ConteudoMidia" data-source-line="94" data-uid="lnk13" id="link_PontoTuristico_ConteudoMidia"><path codeline="94" d="M686.3156,459.7989 C660.0456,485.6289 650.986,494.5311 626.746,518.3611" fill="none" id="PontoTuristico-ConteudoMidia" style="stroke:#000000;stroke-width:1;"></path><line style="stroke:#000000;stroke-width:1;" x1="686.3633" x2="691.9722" y1="454.1422" y2="459.8467"></line><line style="stroke:#000000;stroke-width:1;" x1="684.2242" x2="689.8331" y1="456.2456" y2="461.95"></line><line style="stroke:#000000;stroke-width:1;" x1="686.3156" x2="692.02" y1="459.7989" y2="454.19"></line><line style="stroke:#000000;stroke-width:1;" x1="619.6149" x2="618.1163" y1="525.3716" y2="535.2587"></line><line style="stroke:#000000;stroke-width:1;" x1="619.6149" x2="609.7037" y1="525.3716" y2="526.7013"></line><line style="stroke:#000000;stroke-width:1;" x1="619.6149" x2="613.91" y1="525.3716" y2="530.98"></line><ellipse cx="623.8936" cy="521.1653" fill="none" rx="4" ry="4" style="stroke:#000000;stroke-width:1;"></ellipse></g><!--link PontoTuristico to Categoria--><g class="link" data-entity-1="PontoTuristico" data-entity-2="Categoria" data-source-line="95" data-uid="lnk14" id="link_PontoTuristico_Categoria"><path codeline="95" d="M879.1525,468.9009 C901.7225,500.9109 910.7195,513.6922 929.9295,540.9322" fill="none" id="PontoTuristico-Categoria" style="stroke:#000000;stroke-width:1;"></path><line style="stroke:#000000;stroke-width:1;" x1="873.39" x2="863.8764" y1="460.7282" y2="457.6475"></line><line style="stroke:#000000;stroke-width:1;" x1="873.39" x2="873.6836" y1="460.7282" y2="450.7325"></line><line style="stroke:#000000;stroke-width:1;" x1="873.39" x2="868.78" y1="460.7282" y2="454.19"></line><ellipse cx="876.8475" cy="465.6318" fill="none" rx="4" ry="4" style="stroke:#000000;stroke-width:1;"></ellipse><line style="stroke:#000000;stroke-width:1;" x1="935.5036" x2="928.9658" y1="541.8958" y2="546.5064"></line><line style="stroke:#000000;stroke-width:1;" x1="933.7747" x2="927.2369" y1="539.4441" y2="544.0547"></line><line style="stroke:#000000;stroke-width:1;" x1="929.9295" x2="934.54" y1="540.9322" y2="547.47"></line></g><!--link Estabelecimento to ConteudoMidia--><g class="link" data-entity-1="Estabelecimento" data-entity-2="ConteudoMidia" data-source-line="96" data-uid="lnk15" id="link_Estabelecimento_ConteudoMidia"><path codeline="96" d="M511.8005,454.1421 C516.4805,476.6221 516.152,475.0377 520.752,497.1377" fill="none" id="Estabelecimento-ConteudoMidia" style="stroke:#000000;stroke-width:1;"></path><line style="stroke:#000000;stroke-width:1;" x1="507.0692" x2="514.9013" y1="451.0413" y2="449.4108"></line><line style="stroke:#000000;stroke-width:1;" x1="507.6807" x2="515.5127" y1="453.9783" y2="452.3478"></line><line style="stroke:#000000;stroke-width:1;" x1="511.8005" x2="510.17" y1="454.1421" y2="446.31"></line><line style="stroke:#000000;stroke-width:1;" x1="522.7898" x2="530.2941" y1="506.9279" y2="513.5373"></line><line style="stroke:#000000;stroke-width:1;" x1="522.7898" x2="518.5459" y1="506.9279" y2="515.9827"></line><line style="stroke:#000000;stroke-width:1;" x1="522.7898" x2="524.42" y1="506.9279" y2="514.76"></line><ellipse cx="521.5671" cy="501.0538" fill="none" rx="4" ry="4" style="stroke:#000000;stroke-width:1;"></ellipse></g><!--link Usuario to PontoTuristico--><g class="link" data-entity-1="Usuario" data-entity-2="PontoTuristico" data-source-line="97" data-uid="lnk16" id="link_Usuario_PontoTuristico"><path codeline="97" d="M796.44,178.35 C796.44,202.47 796.44,203.4 796.44,228.9" fill="none" id="Usuario-PontoTuristico" style="stroke:#000000;stroke-width:1;"></path><line style="stroke:#000000;stroke-width:1;" x1="792.44" x2="800.44" y1="174.35" y2="174.35"></line><line style="stroke:#000000;stroke-width:1;" x1="792.44" x2="800.44" y1="177.35" y2="177.35"></line><line style="stroke:#000000;stroke-width:1;" x1="796.44" x2="796.44" y1="178.35" y2="170.35"></line><line style="stroke:#000000;stroke-width:1;" x1="796.44" x2="802.44" y1="238.9" y2="246.9"></line><line style="stroke:#000000;stroke-width:1;" x1="796.44" x2="790.44" y1="238.9" y2="246.9"></line><line style="stroke:#000000;stroke-width:1;" x1="796.44" x2="796.44" y1="238.9" y2="246.9"></line><ellipse cx="796.44" cy="232.9" fill="none" rx="4" ry="4" style="stroke:#000000;stroke-width:1;"></ellipse><text fill="#000000" font-family="Verdana" font-size="13" lengthAdjust="spacing" textLength="56.9702" x="797.44" y="213.1469">favoritos</text></g><!--SRC=[bLHDZvim4BtdLz3RLb6aIfLwG5Kb4eX2bK14IAuh1oPPI-29R1Ejkjd_th4J213QRY_W-V3plESPVz8lK89pAXWNer5MCAMSDGgDQIMvqZn3vstaE1EUkqueD1n16bDW2QwpqPABex5pK9da6KFNIU5L6rV1DDTLJca-PBnaXNMYE3vwCqR0A3bpdLczD7v2E1FY5B409coc14h8FKtxQP7o4iWzFdDLiOB_OlBhjozFdmc6A42Luuhd5cgCUmroGOm8EqEJiYJZUvtNH7wCtciP0gNP7WfJ9f0W7z91yvEHWBwztIO88WS96NOsKCe1HGU4TkfA6O_vxuXOpaXQ4pfR8yUWx0gWiE0PPx99DWpFo7CJ99IhEA4ue2nPXg2QU4FtGOf1mYUG7FCE1IOm57GwTXB9E-TbnpNG92XpA0s9WXiDxibZUELxBYDM1_zSiBtZmMBljr7tmQIIHRjsCcT-rBaGLZBnGjkMU7LOoNIRyVWaCGEbc6ohZ9gNHkJ7GhVKdAJQXne8IiQBuOwwmVnb35YbgTT8OLl4VMp6YXLd9kViJ1UhyUba1jpjpVcZllKe_kyBS7SIRAkr2Hb4LGwDXpqY2JQfjqsyA0t8MdhHR157WJMcNaBVHPm6I_glu-t6yxq6i3Se5cmTH7vmHVBMIRpp_DWUyJC8KxDk5tFle7cSni_qXj1o5_f1lRRkA4vMthA9tCmsJlkYqsqI4XrplByA8redTAnXOLXEWsKm2rTKeAsaz-9UBfC9lZrEv3_ohatUotd7oUHoQRshVUK7GMecjs0FqtKEjrPIlm40]--></g></svg>