<svg xmlns="http://www.w3.org/2000/svg" viewBox="6 5 1366.9609375 1010.234375"><g xmlns="http://www.w3.org/2000/svg"><ellipse cx="1036.4221" cy="15" fill="#FFFFFF" rx="10" ry="10" style="stroke:#000000;stroke-width:1;"></ellipse><rect fill="#FFFFFF" height="33.9688" rx="12.5" ry="12.5" style="stroke:#000000;stroke-width:1;" width="190.373" x="941.2356" y="45"></rect><text fill="#000000" font-family="Verdana" font-size="12" lengthAdjust="spacing" textLength="170.373" x="951.2356" y="66.1387">Administrador acessa painel</text><rect fill="#FFFFFF" height="33.9688" rx="12.5" ry="12.5" style="stroke:#000000;stroke-width:1;" width="200.9961" x="935.9241" y="98.9688"></rect><text fill="#000000" font-family="Verdana" font-size="12" lengthAdjust="spacing" textLength="180.9961" x="945.9241" y="120.1074">Sistema autentica credenciais</text><polygon fill="#FFFFFF" points="979.0991,152.9375,1093.7451,152.9375,1105.7451,164.9375,1093.7451,176.9375,979.0991,176.9375,967.0991,164.9375,979.0991,152.9375" style="stroke:#000000;stroke-width:1;"></polygon><text fill="#000000" font-family="Verdana" font-size="11" lengthAdjust="spacing" textLength="114.646" x="979.0991" y="168.7456">Autenticação válida?</text><text fill="#000000" font-family="Verdana" font-size="11" lengthAdjust="spacing" textLength="19.5024" x="947.5967" y="162.3433">sim</text><text fill="#000000" font-family="Verdana" font-size="11" lengthAdjust="spacing" textLength="20.4424" x="1105.7451" y="162.3433">não</text><rect fill="#FFFFFF" height="33.9688" rx="12.5" ry="12.5" style="stroke:#000000;stroke-width:1;" width="250.3848" x="646.1274" y="186.9375"></rect><text fill="#000000" font-family="Verdana" font-size="12" lengthAdjust="spacing" textLength="230.3848" x="656.1274" y="208.0762">Carregar estabelecimentos pendentes</text><polygon fill="#FFFFFF" points="713.1213,240.9063,829.5183,240.9063,841.5183,252.9063,829.5183,264.9063,713.1213,264.9063,701.1213,252.9063,713.1213,240.9063" style="stroke:#000000;stroke-width:1;"></polygon><text fill="#000000" font-family="Verdana" font-size="11" lengthAdjust="spacing" textLength="116.397" x="713.1213" y="256.7144">Existem pendências?</text><text fill="#000000" font-family="Verdana" font-size="11" lengthAdjust="spacing" textLength="19.5024" x="681.6189" y="250.312">sim</text><text fill="#000000" font-family="Verdana" font-size="11" lengthAdjust="spacing" textLength="20.4424" x="841.5183" y="250.312">não</text><rect fill="#FFFFFF" height="33.9688" rx="12.5" ry="12.5" style="stroke:#000000;stroke-width:1;" width="211.6426" x="364.4766" y="274.9063"></rect><text fill="#000000" font-family="Verdana" font-size="12" lengthAdjust="spacing" textLength="191.6426" x="374.4766" y="296.0449">Exibir lista de estabelecimentos</text><rect fill="#FFFFFF" height="33.9688" rx="12.5" ry="12.5" style="stroke:#000000;stroke-width:1;" width="269.2051" x="335.6953" y="328.875"></rect><text fill="#000000" font-family="Verdana" font-size="12" lengthAdjust="spacing" textLength="249.2051" x="345.6953" y="350.0137">Administrador seleciona estabelecimento</text><rect fill="#FFFFFF" height="33.9688" rx="12.5" ry="12.5" style="stroke:#000000;stroke-width:1;" width="216.8457" x="361.875" y="382.8438"></rect><text fill="#000000" font-family="Verdana" font-size="12" lengthAdjust="spacing" textLength="196.8457" x="371.875" y="403.9824">Carregar informações completas</text><rect fill="#FFFFFF" height="33.9688" rx="12.5" ry="12.5" style="stroke:#000000;stroke-width:1;" width="178.6191" x="380.9883" y="436.8125"></rect><text fill="#000000" font-family="Verdana" font-size="12" lengthAdjust="spacing" textLength="158.6191" x="390.9883" y="457.9512">Exibir formulário de dados</text><rect fill="#FFFFFF" height="33.9688" rx="12.5" ry="12.5" style="stroke:#000000;stroke-width:1;" width="201.6289" x="369.4834" y="490.7813"></rect><text fill="#000000" font-family="Verdana" font-size="12" lengthAdjust="spacing" textLength="181.6289" x="379.4834" y="511.9199">Mostrar documentos enviados</text><polygon fill="#FFFFFF" points="396.7219,544.75,543.8738,544.75,555.8738,556.75,543.8738,568.75,396.7219,568.75,384.7219,556.75,396.7219,544.75" style="stroke:#000000;stroke-width:1;"></polygon><text fill="#000000" font-family="Verdana" font-size="11" lengthAdjust="spacing" textLength="147.1519" x="396.7219" y="560.5581">Decisão do administrador?</text><rect fill="#FFFFFF" height="33.9688" rx="12.5" ry="12.5" style="stroke:#000000;stroke-width:1;" width="215.9375" x="118.6719" y="604.3594"></rect><text fill="#000000" font-family="Verdana" font-size="12" lengthAdjust="spacing" textLength="195.9375" x="128.6719" y="625.498">Validar informações obrigatórias</text><polygon fill="#FFFFFF" points="159.3945,658.3281,293.8867,658.3281,305.8867,670.3281,293.8867,682.3281,159.3945,682.3281,147.3945,670.3281,159.3945,658.3281" style="stroke:#000000;stroke-width:1;"></polygon><text fill="#000000" font-family="Verdana" font-size="11" lengthAdjust="spacing" textLength="134.4922" x="159.3945" y="674.1362">Informações completas?</text><text fill="#000000" font-family="Verdana" font-size="11" lengthAdjust="spacing" textLength="19.5024" x="127.8921" y="667.7339">sim</text><text fill="#000000" font-family="Verdana" font-size="11" lengthAdjust="spacing" textLength="20.4424" x="305.8867" y="667.7339">não</text><rect fill="#FFFFFF" height="33.9688" rx="12.5" ry="12.5" style="stroke:#000000;stroke-width:1;" width="158.7852" x="33.1758" y="692.3281"></rect><text fill="#000000" font-family="Verdana" font-size="12" lengthAdjust="spacing" textLength="138.7852" x="43.1758" y="713.4668">Marcar como aprovado</text><rect fill="#FFFFFF" height="33.9688" rx="12.5" ry="12.5" style="stroke:#000000;stroke-width:1;" width="213.1367" x="6" y="761.2969"></rect><text fill="#000000" font-family="Verdana" font-size="12" lengthAdjust="spacing" textLength="193.1367" x="16" y="782.4355">Enviar notificação de aprovação</text><rect fill="#FFFFFF" height="33.9688" rx="12.5" ry="12.5" style="stroke:#000000;stroke-width:1;" width="171.8926" x="26.6221" y="815.2656"></rect><text fill="#000000" font-family="Verdana" font-size="12" lengthAdjust="spacing" textLength="151.8926" x="36.6221" y="836.4043">Publicar estabelecimento</text><rect fill="#FFFFFF" height="33.9688" rx="12.5" ry="12.5" style="stroke:#000000;stroke-width:1;" width="203.1523" x="239.1367" y="692.3281"></rect><text fill="#000000" font-family="Verdana" font-size="12" lengthAdjust="spacing" textLength="183.1523" x="249.1367" y="713.4668">Solicitar informações faltantes</text><rect fill="#FFFFFF" height="33.9688" rx="12.5" ry="12.5" style="stroke:#000000;stroke-width:1;" width="160.2324" x="260.5967" y="761.2969"></rect><text fill="#000000" font-family="Verdana" font-size="12" lengthAdjust="spacing" textLength="140.2324" x="270.5967" y="782.4355">Manter como pendente</text><polygon fill="#FFFFFF" points="226.6406,855.2344,238.6406,867.2344,226.6406,879.2344,214.6406,867.2344,226.6406,855.2344" style="stroke:#000000;stroke-width:1;"></polygon><rect fill="#FFFFFF" height="33.9688" rx="12.5" ry="12.5" style="stroke:#000000;stroke-width:1;" width="184.1387" x="495.2227" y="604.3594"></rect><text fill="#000000" font-family="Verdana" font-size="12" lengthAdjust="spacing" textLength="164.1387" x="505.2227" y="625.498">Solicitar motivo da rejeição</text><rect fill="#FFFFFF" height="33.9688" rx="12.5" ry="12.5" style="stroke:#000000;stroke-width:1;" width="155.5098" x="509.5371" y="658.3281"></rect><text fill="#000000" font-family="Verdana" font-size="12" lengthAdjust="spacing" textLength="135.5098" x="519.5371" y="679.4668">Marcar como rejeitado</text><rect fill="#FFFFFF" height="33.9688" rx="12.5" ry="12.5" style="stroke:#000000;stroke-width:1;" width="230.0059" x="472.2891" y="727.2969"></rect><text fill="#000000" font-family="Verdana" font-size="12" lengthAdjust="spacing" textLength="210.0059" x="482.2891" y="748.4355">Enviar notificação com justificativa</text><rect fill="#FFFFFF" height="33.9688" rx="12.5" ry="12.5" style="stroke:#000000;stroke-width:1;" width="222.3008" x="722.2949" y="604.3594"></rect><text fill="#000000" font-family="Verdana" font-size="12" lengthAdjust="spacing" textLength="202.3008" x="732.2949" y="625.498">Especificar correções necessárias</text><rect fill="#FFFFFF" height="33.9688" rx="12.5" ry="12.5" style="stroke:#000000;stroke-width:1;" width="160.2324" x="753.3291" y="658.3281"></rect><text fill="#000000" font-family="Verdana" font-size="12" lengthAdjust="spacing" textLength="140.2324" x="763.3291" y="679.4668">Manter como pendente</text><rect fill="#FFFFFF" height="33.9688" rx="12.5" ry="12.5" style="stroke:#000000;stroke-width:1;" width="178.0801" x="744.4053" y="727.2969"></rect><text fill="#000000" font-family="Verdana" font-size="12" lengthAdjust="spacing" textLength="158.0801" x="754.4053" y="748.4355">Enviar lista de pendências</text><polygon fill="#FFFFFF" points="470.2979,889.2344,470.2979,889.2344,482.2979,901.2344,470.2979,913.2344,470.2979,913.2344,458.2979,901.2344,470.2979,889.2344" style="stroke:#000000;stroke-width:1;"></polygon><rect fill="#FFFFFF" height="33.9688" rx="12.5" ry="12.5" style="stroke:#000000;stroke-width:1;" width="215.4922" x="964.5957" y="274.9063"></rect><text fill="#000000" font-family="Verdana" font-size="12" lengthAdjust="spacing" textLength="195.4922" x="974.5957" y="296.0449">Informar que não há pendências</text><rect fill="#FFFFFF" height="33.9688" rx="12.5" ry="12.5" style="stroke:#000000;stroke-width:1;" width="205.959" x="969.3623" y="328.875"></rect><text fill="#000000" font-family="Verdana" font-size="12" lengthAdjust="spacing" textLength="185.959" x="979.3623" y="350.0137">Exibir estatísticas de validação</text><polygon fill="#FFFFFF" points="771.3198,919.2344,783.3198,931.2344,771.3198,943.2344,759.3198,931.2344,771.3198,919.2344" style="stroke:#000000;stroke-width:1;"></polygon><rect fill="#FFFFFF" height="33.9688" rx="12.5" ry="12.5" style="stroke:#000000;stroke-width:1;" width="182.873" x="1190.0879" y="186.9375"></rect><text fill="#000000" font-family="Verdana" font-size="12" lengthAdjust="spacing" textLength="162.873" x="1200.0879" y="208.0762">Exibir erro de autenticação</text><rect fill="#FFFFFF" height="33.9688" rx="12.5" ry="12.5" style="stroke:#000000;stroke-width:1;" width="160.2734" x="1201.3877" y="240.9063"></rect><text fill="#000000" font-family="Verdana" font-size="12" lengthAdjust="spacing" textLength="140.2734" x="1211.3877" y="262.0449">Redirecionar para login</text><polygon fill="#FFFFFF" points="1036.4221,949.2344,1048.4221,961.2344,1036.4221,973.2344,1024.4221,961.2344,1036.4221,949.2344" style="stroke:#000000;stroke-width:1;"></polygon><ellipse cx="1036.4221" cy="1004.2344" fill="none" rx="11" ry="11" style="stroke:#000000;stroke-width:1;"></ellipse><ellipse cx="1036.4221" cy="1004.2344" fill="#FFFFFF" rx="6" ry="6" style="stroke:#000000;stroke-width:1;"></ellipse><line style="stroke:#000000;stroke-width:1;" x1="1036.4221" x2="1036.4221" y1="25" y2="45"></line><polygon fill="#000000" points="1032.4221,35,1036.4221,45,1040.4221,35,1036.4221,39" style="stroke:#000000;stroke-width:1;"></polygon><line style="stroke:#000000;stroke-width:1;" x1="1036.4221" x2="1036.4221" y1="78.9688" y2="98.9688"></line><polygon fill="#000000" points="1032.4221,88.9688,1036.4221,98.9688,1040.4221,88.9688,1036.4221,92.9688" style="stroke:#000000;stroke-width:1;"></polygon><line style="stroke:#000000;stroke-width:1;" x1="470.2979" x2="470.2979" y1="308.875" y2="328.875"></line><polygon fill="#000000" points="466.2979,318.875,470.2979,328.875,474.2979,318.875,470.2979,322.875" style="stroke:#000000;stroke-width:1;"></polygon><line style="stroke:#000000;stroke-width:1;" x1="470.2979" x2="470.2979" y1="362.8438" y2="382.8438"></line><polygon fill="#000000" points="466.2979,372.8438,470.2979,382.8438,474.2979,372.8438,470.2979,376.8438" style="stroke:#000000;stroke-width:1;"></polygon><line style="stroke:#000000;stroke-width:1;" x1="470.2979" x2="470.2979" y1="416.8125" y2="436.8125"></line><polygon fill="#000000" points="466.2979,426.8125,470.2979,436.8125,474.2979,426.8125,470.2979,430.8125" style="stroke:#000000;stroke-width:1;"></polygon><line style="stroke:#000000;stroke-width:1;" x1="470.2979" x2="470.2979" y1="470.7813" y2="490.7813"></line><polygon fill="#000000" points="466.2979,480.7813,470.2979,490.7813,474.2979,480.7813,470.2979,484.7813" style="stroke:#000000;stroke-width:1;"></polygon><line style="stroke:#000000;stroke-width:1;" x1="112.5684" x2="112.5684" y1="726.2969" y2="761.2969"></line><polygon fill="#000000" points="108.5684,751.2969,112.5684,761.2969,116.5684,751.2969,112.5684,755.2969" style="stroke:#000000;stroke-width:1;"></polygon><line style="stroke:#000000;stroke-width:1;" x1="112.5684" x2="112.5684" y1="795.2656" y2="815.2656"></line><polygon fill="#000000" points="108.5684,805.2656,112.5684,815.2656,116.5684,805.2656,112.5684,809.2656" style="stroke:#000000;stroke-width:1;"></polygon><line style="stroke:#000000;stroke-width:1;" x1="340.7129" x2="340.7129" y1="726.2969" y2="761.2969"></line><polygon fill="#000000" points="336.7129,751.2969,340.7129,761.2969,344.7129,751.2969,340.7129,755.2969" style="stroke:#000000;stroke-width:1;"></polygon><line style="stroke:#000000;stroke-width:1;" x1="147.3945" x2="112.5684" y1="670.3281" y2="670.3281"></line><line style="stroke:#000000;stroke-width:1;" x1="112.5684" x2="112.5684" y1="670.3281" y2="692.3281"></line><polygon fill="#000000" points="108.5684,682.3281,112.5684,692.3281,116.5684,682.3281,112.5684,686.3281" style="stroke:#000000;stroke-width:1;"></polygon><line style="stroke:#000000;stroke-width:1;" x1="305.8867" x2="340.7129" y1="670.3281" y2="670.3281"></line><line style="stroke:#000000;stroke-width:1;" x1="340.7129" x2="340.7129" y1="670.3281" y2="692.3281"></line><polygon fill="#000000" points="336.7129,682.3281,340.7129,692.3281,344.7129,682.3281,340.7129,686.3281" style="stroke:#000000;stroke-width:1;"></polygon><line style="stroke:#000000;stroke-width:1;" x1="112.5684" x2="112.5684" y1="849.2344" y2="867.2344"></line><line style="stroke:#000000;stroke-width:1;" x1="112.5684" x2="214.6406" y1="867.2344" y2="867.2344"></line><polygon fill="#000000" points="204.6406,863.2344,214.6406,867.2344,204.6406,871.2344,208.6406,867.2344" style="stroke:#000000;stroke-width:1;"></polygon><line style="stroke:#000000;stroke-width:1;" x1="340.7129" x2="340.7129" y1="795.2656" y2="867.2344"></line><line style="stroke:#000000;stroke-width:1;" x1="340.7129" x2="238.6406" y1="867.2344" y2="867.2344"></line><polygon fill="#000000" points="248.6406,863.2344,238.6406,867.2344,248.6406,871.2344,244.6406,867.2344" style="stroke:#000000;stroke-width:1;"></polygon><line style="stroke:#000000;stroke-width:1;" x1="226.6406" x2="226.6406" y1="638.3281" y2="658.3281"></line><polygon fill="#000000" points="222.6406,648.3281,226.6406,658.3281,230.6406,648.3281,226.6406,652.3281" style="stroke:#000000;stroke-width:1;"></polygon><line style="stroke:#000000;stroke-width:1;" x1="587.292" x2="587.292" y1="638.3281" y2="658.3281"></line><polygon fill="#000000" points="583.292,648.3281,587.292,658.3281,591.292,648.3281,587.292,652.3281" style="stroke:#000000;stroke-width:1;"></polygon><line style="stroke:#000000;stroke-width:1;" x1="587.292" x2="587.292" y1="692.2969" y2="727.2969"></line><polygon fill="#000000" points="583.292,717.2969,587.292,727.2969,591.292,717.2969,587.292,721.2969" style="stroke:#000000;stroke-width:1;"></polygon><line style="stroke:#000000;stroke-width:1;" x1="833.4453" x2="833.4453" y1="638.3281" y2="658.3281"></line><polygon fill="#000000" points="829.4453,648.3281,833.4453,658.3281,837.4453,648.3281,833.4453,652.3281" style="stroke:#000000;stroke-width:1;"></polygon><line style="stroke:#000000;stroke-width:1;" x1="833.4453" x2="833.4453" y1="692.2969" y2="727.2969"></line><polygon fill="#000000" points="829.4453,717.2969,833.4453,727.2969,837.4453,717.2969,833.4453,721.2969" style="stroke:#000000;stroke-width:1;"></polygon><line style="stroke:#000000;stroke-width:1;" x1="384.7219" x2="226.6406" y1="556.75" y2="556.75"></line><line style="stroke:#000000;stroke-width:1;" x1="226.6406" x2="226.6406" y1="556.75" y2="604.3594"></line><polygon fill="#000000" points="222.6406,594.3594,226.6406,604.3594,230.6406,594.3594,226.6406,598.3594" style="stroke:#000000;stroke-width:1;"></polygon><text fill="#000000" font-family="Verdana" font-size="11" lengthAdjust="spacing" textLength="43.5327" x="226.6406" y="584.3628">Aprovar</text><line style="stroke:#000000;stroke-width:1;" x1="555.8738" x2="833.4453" y1="556.75" y2="556.75"></line><line style="stroke:#000000;stroke-width:1;" x1="833.4453" x2="833.4453" y1="556.75" y2="604.3594"></line><polygon fill="#000000" points="829.4453,594.3594,833.4453,604.3594,837.4453,594.3594,833.4453,598.3594" style="stroke:#000000;stroke-width:1;"></polygon><text fill="#000000" font-family="Verdana" font-size="11" lengthAdjust="spacing" textLength="101.8682" x="833.4453" y="584.3628">Solicitar correções</text><line style="stroke:#000000;stroke-width:1;" x1="587.292" x2="587.292" y1="556.75" y2="604.3594"></line><polygon fill="#000000" points="583.292,594.3594,587.292,604.3594,591.292,594.3594,587.292,598.3594" style="stroke:#000000;stroke-width:1;"></polygon><text fill="#000000" font-family="Verdana" font-size="11" lengthAdjust="spacing" textLength="42.8667" x="587.292" y="579.3628">Rejeitar</text><line style="stroke:#000000;stroke-width:1;" x1="226.6406" x2="226.6406" y1="879.2344" y2="901.2344"></line><line style="stroke:#000000;stroke-width:1;" x1="226.6406" x2="458.2979" y1="901.2344" y2="901.2344"></line><polygon fill="#000000" points="448.2979,897.2344,458.2979,901.2344,448.2979,905.2344,452.2979,901.2344" style="stroke:#000000;stroke-width:1;"></polygon><line style="stroke:#000000;stroke-width:1;" x1="833.4453" x2="833.4453" y1="761.2656" y2="901.2344"></line><line style="stroke:#000000;stroke-width:1;" x1="833.4453" x2="482.2979" y1="901.2344" y2="901.2344"></line><polygon fill="#000000" points="492.2979,897.2344,482.2979,901.2344,492.2979,905.2344,488.2979,901.2344" style="stroke:#000000;stroke-width:1;"></polygon><line style="stroke:#000000;stroke-width:1;" x1="587.292" x2="587.292" y1="761.2656" y2="901.2344"></line><polygon fill="#000000" points="583.292,891.2344,587.292,901.2344,591.292,891.2344,587.292,895.2344" style="stroke:#000000;stroke-width:1;"></polygon><line style="stroke:#000000;stroke-width:1;" x1="470.2979" x2="470.2979" y1="524.75" y2="544.75"></line><polygon fill="#000000" points="466.2979,534.75,470.2979,544.75,474.2979,534.75,470.2979,538.75" style="stroke:#000000;stroke-width:1;"></polygon><line style="stroke:#000000;stroke-width:1;" x1="1072.3418" x2="1072.3418" y1="308.875" y2="328.875"></line><polygon fill="#000000" points="1068.3418,318.875,1072.3418,328.875,1076.3418,318.875,1072.3418,322.875" style="stroke:#000000;stroke-width:1;"></polygon><line style="stroke:#000000;stroke-width:1;" x1="701.1213" x2="470.2979" y1="252.9063" y2="252.9063"></line><line style="stroke:#000000;stroke-width:1;" x1="470.2979" x2="470.2979" y1="252.9063" y2="274.9063"></line><polygon fill="#000000" points="466.2979,264.9063,470.2979,274.9063,474.2979,264.9063,470.2979,268.9063" style="stroke:#000000;stroke-width:1;"></polygon><line style="stroke:#000000;stroke-width:1;" x1="841.5183" x2="1072.3418" y1="252.9063" y2="252.9063"></line><line style="stroke:#000000;stroke-width:1;" x1="1072.3418" x2="1072.3418" y1="252.9063" y2="274.9063"></line><polygon fill="#000000" points="1068.3418,264.9063,1072.3418,274.9063,1076.3418,264.9063,1072.3418,268.9063" style="stroke:#000000;stroke-width:1;"></polygon><line style="stroke:#000000;stroke-width:1;" x1="470.2979" x2="470.2979" y1="913.2344" y2="931.2344"></line><line style="stroke:#000000;stroke-width:1;" x1="470.2979" x2="759.3198" y1="931.2344" y2="931.2344"></line><polygon fill="#000000" points="749.3198,927.2344,759.3198,931.2344,749.3198,935.2344,753.3198,931.2344" style="stroke:#000000;stroke-width:1;"></polygon><line style="stroke:#000000;stroke-width:1;" x1="1072.3418" x2="1072.3418" y1="362.8438" y2="931.2344"></line><line style="stroke:#000000;stroke-width:1;" x1="1072.3418" x2="783.3198" y1="931.2344" y2="931.2344"></line><polygon fill="#000000" points="793.3198,927.2344,783.3198,931.2344,793.3198,935.2344,789.3198,931.2344" style="stroke:#000000;stroke-width:1;"></polygon><line style="stroke:#000000;stroke-width:1;" x1="771.3198" x2="771.3198" y1="220.9063" y2="240.9063"></line><polygon fill="#000000" points="767.3198,230.9063,771.3198,240.9063,775.3198,230.9063,771.3198,234.9063" style="stroke:#000000;stroke-width:1;"></polygon><line style="stroke:#000000;stroke-width:1;" x1="1281.5244" x2="1281.5244" y1="220.9063" y2="240.9063"></line><polygon fill="#000000" points="1277.5244,230.9063,1281.5244,240.9063,1285.5244,230.9063,1281.5244,234.9063" style="stroke:#000000;stroke-width:1;"></polygon><line style="stroke:#000000;stroke-width:1;" x1="967.0991" x2="771.3198" y1="164.9375" y2="164.9375"></line><line style="stroke:#000000;stroke-width:1;" x1="771.3198" x2="771.3198" y1="164.9375" y2="186.9375"></line><polygon fill="#000000" points="767.3198,176.9375,771.3198,186.9375,775.3198,176.9375,771.3198,180.9375" style="stroke:#000000;stroke-width:1;"></polygon><line style="stroke:#000000;stroke-width:1;" x1="1105.7451" x2="1281.5244" y1="164.9375" y2="164.9375"></line><line style="stroke:#000000;stroke-width:1;" x1="1281.5244" x2="1281.5244" y1="164.9375" y2="186.9375"></line><polygon fill="#000000" points="1277.5244,176.9375,1281.5244,186.9375,1285.5244,176.9375,1281.5244,180.9375" style="stroke:#000000;stroke-width:1;"></polygon><line style="stroke:#000000;stroke-width:1;" x1="771.3198" x2="771.3198" y1="943.2344" y2="961.2344"></line><line style="stroke:#000000;stroke-width:1;" x1="771.3198" x2="1024.4221" y1="961.2344" y2="961.2344"></line><polygon fill="#000000" points="1014.4221,957.2344,1024.4221,961.2344,1014.4221,965.2344,1018.4221,961.2344" style="stroke:#000000;stroke-width:1;"></polygon><line style="stroke:#000000;stroke-width:1;" x1="1281.5244" x2="1281.5244" y1="274.875" y2="961.2344"></line><line style="stroke:#000000;stroke-width:1;" x1="1281.5244" x2="1048.4221" y1="961.2344" y2="961.2344"></line><polygon fill="#000000" points="1058.4221,957.2344,1048.4221,961.2344,1058.4221,965.2344,1054.4221,961.2344" style="stroke:#000000;stroke-width:1;"></polygon><line style="stroke:#000000;stroke-width:1;" x1="1036.4221" x2="1036.4221" y1="132.9375" y2="152.9375"></line><polygon fill="#000000" points="1032.4221,142.9375,1036.4221,152.9375,1040.4221,142.9375,1036.4221,146.9375" style="stroke:#000000;stroke-width:1;"></polygon><line style="stroke:#000000;stroke-width:1;" x1="1036.4221" x2="1036.4221" y1="973.2344" y2="993.2344"></line><polygon fill="#000000" points="1032.4221,983.2344,1036.4221,993.2344,1040.4221,983.2344,1036.4221,987.2344" style="stroke:#000000;stroke-width:1;"></polygon><!--SRC=[TLJDZjCm4BxdAOPRznNQmse5FN10GhiIzwazQMVbs67i15wdue24n0dn17annd6J9kroZFtv-_CuxzA96eBM8Vig9fHKLTidsx3dc0Hj4413CIAqYY2tq-qNtQ860Rj4Fh51C4AMl67ag02kOVCqxGq_Xny1-k7isEBZ0wYUXqtavg42sBv74JgY0AdsWHmPRlHSYD2ILyf4cH0WK-w_ZxhZpl0hgyLRFcLKr845d68HBDqHZtIAMsUC8o9ulCLFyDae-pf8asFzfGWcDAsZX4gxLC-GpWrduP0zMDMO49z2rXImmNINgEHxBeWH4hznCYVOV50FCPTd0-3IxME9QZ2I5jrAw57Aal9_mLpqhSzm43vY6lu8uwHJMltuTfxxPejx5AFa2bDFex8Dk-lsFYSHy25nFT-z5b2Wu-S2_RaxE3Rtbpz1oEM0NWyj7Bm4FSFfBc6DBc6PbuLRNRYudUPf9lUMwsfHv3EzKkQTcxmgDPgdro08aa6h7AjAf71SEtcx4SN2QnVBabBZRcdagck23bt9DxlQnrPxgjcizy5JVgPvv30klFs_WCdQ_58MxwfWzBlCOdPtUndRo-08VEq8yZgSXlCzoVGayXsduNVC_uIOvVfnKESkB_UnbfaFYvGvMlrLyh7jCrcMydP5_r62uCAH_Qww4COKsdy0]--></g></svg>