<svg xmlns="http://www.w3.org/2000/svg" xmlns:xlink="http://www.w3.org/1999/xlink" contentStyleType="text/css" data-diagram-type="ACTIVITY" height="697px" preserveAspectRatio="none" style="width:1816px;height:697px;background:#FFFFFF;" version="1.1" viewBox="0 0 1816 697" width="1816px" zoomAndPan="magnify"><defs/><g><ellipse cx="1276.7925" cy="15" fill="#FFFFFF" rx="10" ry="10" style="stroke:#000000;stroke-width:1;"/><rect fill="#FFFFFF" height="33.9688" rx="12.5" ry="12.5" style="stroke:#000000;stroke-width:1;" width="212.9609" x="1170.312" y="45"/><text fill="#000000" font-family="Verdana" font-size="12" lengthAdjust="spacing" textLength="192.9609" x="1180.312" y="66.1387">Turista seleciona ponto turístico</text><rect fill="#FFFFFF" height="33.9688" rx="12.5" ry="12.5" style="stroke:#000000;stroke-width:1;" width="244.7656" x="1154.4097" y="98.9688"/><text fill="#000000" font-family="Verdana" font-size="12" lengthAdjust="spacing" textLength="224.7656" x="1164.4097" y="120.1074">Sistema carrega informações básicas</text><polygon fill="#FFFFFF" points="1207.1992,152.9375,1346.3857,152.9375,1358.3857,164.9375,1346.3857,176.9375,1207.1992,176.9375,1195.1992,164.9375,1207.1992,152.9375" style="stroke:#000000;stroke-width:1;"/><text fill="#000000" font-family="Verdana" font-size="11" lengthAdjust="spacing" textLength="139.1865" x="1207.1992" y="168.7456">Informações carregadas?</text><text fill="#000000" font-family="Verdana" font-size="11" lengthAdjust="spacing" textLength="19.5024" x="1175.6968" y="162.3433">sim</text><text fill="#000000" font-family="Verdana" font-size="11" lengthAdjust="spacing" textLength="20.4424" x="1358.3857" y="162.3433">não</text><rect fill="#FFFFFF" height="33.9688" rx="12.5" ry="12.5" style="stroke:#000000;stroke-width:1;" width="199.6602" x="708.3926" y="186.9375"/><text fill="#000000" font-family="Verdana" font-size="12" lengthAdjust="spacing" textLength="179.6602" x="718.3926" y="208.0762">Exibir dados básicos do ponto</text><polygon fill="#FFFFFF" points="761.0671,240.9063,855.3782,240.9063,867.3782,252.9063,855.3782,264.9063,761.0671,264.9063,749.0671,252.9063,761.0671,240.9063" style="stroke:#000000;stroke-width:1;"/><text fill="#000000" font-family="Verdana" font-size="11" lengthAdjust="spacing" textLength="94.311" x="761.0671" y="256.7144">Ação do usuário?</text><rect fill="#FFFFFF" height="33.9688" rx="12.5" ry="12.5" style="stroke:#000000;stroke-width:1;" width="186.9336" x="6.5654" y="300.5156"/><text fill="#000000" font-family="Verdana" font-size="12" lengthAdjust="spacing" textLength="166.9336" x="16.5654" y="321.6543">Mostrar descrição completa</text><rect fill="#FFFFFF" height="33.9688" rx="12.5" ry="12.5" style="stroke:#000000;stroke-width:1;" width="188.0645" x="6" y="369.4844"/><text fill="#000000" font-family="Verdana" font-size="12" lengthAdjust="spacing" textLength="168.0645" x="16" y="390.623">Exibir horários e localização</text><rect fill="#FFFFFF" height="33.9688" rx="12.5" ry="12.5" style="stroke:#000000;stroke-width:1;" width="167.2578" x="389.9531" y="300.5156"/><text fill="#000000" font-family="Verdana" font-size="12" lengthAdjust="spacing" textLength="147.2578" x="399.9531" y="321.6543">Carregar linha do tempo</text><polygon fill="#FFFFFF" points="389.092,369.4844,558.072,369.4844,570.072,381.4844,558.072,393.4844,389.092,393.4844,377.092,381.4844,389.092,369.4844" style="stroke:#000000;stroke-width:1;"/><text fill="#000000" font-family="Verdana" font-size="11" lengthAdjust="spacing" textLength="168.98" x="389.092" y="385.2925">Conteúdo histórico disponível?</text><text fill="#000000" font-family="Verdana" font-size="11" lengthAdjust="spacing" textLength="19.5024" x="357.5896" y="378.8901">sim</text><text fill="#000000" font-family="Verdana" font-size="11" lengthAdjust="spacing" textLength="20.4424" x="570.072" y="378.8901">não</text><rect fill="#FFFFFF" height="33.9688" rx="12.5" ry="12.5" style="stroke:#000000;stroke-width:1;" width="168.1074" x="271.8848" y="403.4844"/><text fill="#000000" font-family="Verdana" font-size="12" lengthAdjust="spacing" textLength="148.1074" x="281.8848" y="424.623">Exibir timeline interativa</text><rect fill="#FFFFFF" height="33.9688" rx="12.5" ry="12.5" style="stroke:#000000;stroke-width:1;" width="262.4668" x="459.9922" y="403.4844"/><text fill="#000000" font-family="Verdana" font-size="12" lengthAdjust="spacing" textLength="242.4668" x="469.9922" y="424.623">Mostrar mensagem de desenvolvimento</text><polygon fill="#FFFFFF" points="473.582,443.4531,485.582,455.4531,473.582,467.4531,461.582,455.4531,473.582,443.4531" style="stroke:#000000;stroke-width:1;"/><polygon fill="#FFFFFF" points="1056.5876,300.5156,1204.905,300.5156,1216.905,312.5156,1204.905,324.5156,1056.5876,324.5156,1044.5876,312.5156,1056.5876,300.5156" style="stroke:#000000;stroke-width:1;"/><text fill="#000000" font-family="Verdana" font-size="11" lengthAdjust="spacing" textLength="148.3174" x="1056.5876" y="316.3237">Conteúdo 360° disponível?</text><text fill="#000000" font-family="Verdana" font-size="11" lengthAdjust="spacing" textLength="19.5024" x="1025.0852" y="309.9214">sim</text><text fill="#000000" font-family="Verdana" font-size="11" lengthAdjust="spacing" textLength="20.4424" x="1216.905" y="309.9214">não</text><rect fill="#FFFFFF" height="33.9688" rx="12.5" ry="12.5" style="stroke:#000000;stroke-width:1;" width="182.6797" x="871.2603" y="334.5156"/><text fill="#000000" font-family="Verdana" font-size="12" lengthAdjust="spacing" textLength="162.6797" x="881.2603" y="355.6543">Carregar visualização 360°</text><polygon fill="#FFFFFF" points="879.3535,403.4844,1045.8467,403.4844,1057.8467,415.4844,1045.8467,427.4844,879.3535,427.4844,867.3535,415.4844,879.3535,403.4844" style="stroke:#000000;stroke-width:1;"/><text fill="#000000" font-family="Verdana" font-size="11" lengthAdjust="spacing" textLength="166.4932" x="879.3535" y="419.2925">Carregamento bem-sucedido?</text><text fill="#000000" font-family="Verdana" font-size="11" lengthAdjust="spacing" textLength="19.5024" x="847.8511" y="412.8901">sim</text><text fill="#000000" font-family="Verdana" font-size="11" lengthAdjust="spacing" textLength="20.4424" x="1057.8467" y="412.8901">não</text><rect fill="#FFFFFF" height="33.9688" rx="12.5" ry="12.5" style="stroke:#000000;stroke-width:1;" width="148.625" x="783.041" y="437.4844"/><text fill="#000000" font-family="Verdana" font-size="12" lengthAdjust="spacing" textLength="128.625" x="793.041" y="458.623">Ativar modo imersivo</text><rect fill="#FFFFFF" height="33.9688" rx="12.5" ry="12.5" style="stroke:#000000;stroke-width:1;" width="169.7891" x="772.459" y="491.4531"/><text fill="#000000" font-family="Verdana" font-size="12" lengthAdjust="spacing" textLength="149.7891" x="782.459" y="512.5918">Permitir navegação 360°</text><rect fill="#FFFFFF" height="33.9688" rx="12.5" ry="12.5" style="stroke:#000000;stroke-width:1;" width="189.834" x="972.9297" y="437.4844"/><text fill="#000000" font-family="Verdana" font-size="12" lengthAdjust="spacing" textLength="169.834" x="982.9297" y="458.623">Exibir erro de carregamento</text><rect fill="#FFFFFF" height="33.9688" rx="12.5" ry="12.5" style="stroke:#000000;stroke-width:1;" width="158.2871" x="988.7031" y="491.4531"/><text fill="#000000" font-family="Verdana" font-size="12" lengthAdjust="spacing" textLength="138.2871" x="998.7031" y="512.5918">Oferecer fotos normais</text><polygon fill="#FFFFFF" points="962.6001,531.4219,974.6001,543.4219,962.6001,555.4219,950.6001,543.4219,962.6001,531.4219" style="stroke:#000000;stroke-width:1;"/><rect fill="#FFFFFF" height="33.9688" rx="12.5" ry="12.5" style="stroke:#000000;stroke-width:1;" width="177.0664" x="1210.3594" y="334.5156"/><text fill="#000000" font-family="Verdana" font-size="12" lengthAdjust="spacing" textLength="157.0664" x="1220.3594" y="355.6543">Informar indisponibilidade</text><rect fill="#FFFFFF" height="33.9688" rx="12.5" ry="12.5" style="stroke:#000000;stroke-width:1;" width="212.2578" x="1192.7637" y="403.4844"/><text fill="#000000" font-family="Verdana" font-size="12" lengthAdjust="spacing" textLength="192.2578" x="1202.7637" y="424.623">Sugerir outros pontos com 360°</text><polygon fill="#FFFFFF" points="1130.7463,561.4219,1142.7463,573.4219,1130.7463,585.4219,1118.7463,573.4219,1130.7463,561.4219" style="stroke:#000000;stroke-width:1;"/><rect fill="#FFFFFF" height="33.9688" rx="12.5" ry="12.5" style="stroke:#000000;stroke-width:1;" width="182.7031" x="1421.3818" y="300.5156"/><text fill="#000000" font-family="Verdana" font-size="12" lengthAdjust="spacing" textLength="162.7031" x="1431.3818" y="321.6543">Abrir visualização do mapa</text><rect fill="#FFFFFF" height="33.9688" rx="12.5" ry="12.5" style="stroke:#000000;stroke-width:1;" width="195.4238" x="1415.0215" y="369.4844"/><text fill="#000000" font-family="Verdana" font-size="12" lengthAdjust="spacing" textLength="175.4238" x="1425.0215" y="390.623">Centralizar no ponto turístico</text><polygon fill="#FFFFFF" points="808.2227,595.4219,808.2227,595.4219,820.2227,607.4219,808.2227,619.4219,808.2227,619.4219,796.2227,607.4219,808.2227,595.4219" style="stroke:#000000;stroke-width:1;"/><rect fill="#FFFFFF" height="33.9688" rx="12.5" ry="12.5" style="stroke:#000000;stroke-width:1;" width="189.834" x="1620.4453" y="186.9375"/><text fill="#000000" font-family="Verdana" font-size="12" lengthAdjust="spacing" textLength="169.834" x="1630.4453" y="208.0762">Exibir erro de carregamento</text><rect fill="#FFFFFF" height="33.9688" rx="12.5" ry="12.5" style="stroke:#000000;stroke-width:1;" width="184.7656" x="1622.9795" y="240.9063"/><text fill="#000000" font-family="Verdana" font-size="12" lengthAdjust="spacing" textLength="164.7656" x="1632.9795" y="262.0449">Oferecer tentar novamente</text><polygon fill="#FFFFFF" points="1276.7925,625.4219,1288.7925,637.4219,1276.7925,649.4219,1264.7925,637.4219,1276.7925,625.4219" style="stroke:#000000;stroke-width:1;"/><ellipse cx="1276.7925" cy="680.4219" fill="none" rx="11" ry="11" style="stroke:#000000;stroke-width:1;"/><ellipse cx="1276.7925" cy="680.4219" fill="#FFFFFF" rx="6" ry="6" style="stroke:#000000;stroke-width:1;"/><line style="stroke:#000000;stroke-width:1;" x1="1276.7925" x2="1276.7925" y1="25" y2="45"/><polygon fill="#000000" points="1272.7925,35,1276.7925,45,1280.7925,35,1276.7925,39" style="stroke:#000000;stroke-width:1;"/><line style="stroke:#000000;stroke-width:1;" x1="1276.7925" x2="1276.7925" y1="78.9688" y2="98.9688"/><polygon fill="#000000" points="1272.7925,88.9688,1276.7925,98.9688,1280.7925,88.9688,1276.7925,92.9688" style="stroke:#000000;stroke-width:1;"/><line style="stroke:#000000;stroke-width:1;" x1="100.0322" x2="100.0322" y1="334.4844" y2="369.4844"/><polygon fill="#000000" points="96.0322,359.4844,100.0322,369.4844,104.0322,359.4844,100.0322,363.4844" style="stroke:#000000;stroke-width:1;"/><line style="stroke:#000000;stroke-width:1;" x1="377.092" x2="355.9385" y1="381.4844" y2="381.4844"/><line style="stroke:#000000;stroke-width:1;" x1="355.9385" x2="355.9385" y1="381.4844" y2="403.4844"/><polygon fill="#000000" points="351.9385,393.4844,355.9385,403.4844,359.9385,393.4844,355.9385,397.4844" style="stroke:#000000;stroke-width:1;"/><line style="stroke:#000000;stroke-width:1;" x1="570.072" x2="591.2256" y1="381.4844" y2="381.4844"/><line style="stroke:#000000;stroke-width:1;" x1="591.2256" x2="591.2256" y1="381.4844" y2="403.4844"/><polygon fill="#000000" points="587.2256,393.4844,591.2256,403.4844,595.2256,393.4844,591.2256,397.4844" style="stroke:#000000;stroke-width:1;"/><line style="stroke:#000000;stroke-width:1;" x1="355.9385" x2="355.9385" y1="437.4531" y2="455.4531"/><line style="stroke:#000000;stroke-width:1;" x1="355.9385" x2="461.582" y1="455.4531" y2="455.4531"/><polygon fill="#000000" points="451.582,451.4531,461.582,455.4531,451.582,459.4531,455.582,455.4531" style="stroke:#000000;stroke-width:1;"/><line style="stroke:#000000;stroke-width:1;" x1="591.2256" x2="591.2256" y1="437.4531" y2="455.4531"/><line style="stroke:#000000;stroke-width:1;" x1="591.2256" x2="485.582" y1="455.4531" y2="455.4531"/><polygon fill="#000000" points="495.582,451.4531,485.582,455.4531,495.582,459.4531,491.582,455.4531" style="stroke:#000000;stroke-width:1;"/><line style="stroke:#000000;stroke-width:1;" x1="473.582" x2="473.582" y1="334.4844" y2="369.4844"/><polygon fill="#000000" points="469.582,359.4844,473.582,369.4844,477.582,359.4844,473.582,363.4844" style="stroke:#000000;stroke-width:1;"/><line style="stroke:#000000;stroke-width:1;" x1="857.3535" x2="857.3535" y1="471.4531" y2="491.4531"/><polygon fill="#000000" points="853.3535,481.4531,857.3535,491.4531,861.3535,481.4531,857.3535,485.4531" style="stroke:#000000;stroke-width:1;"/><line style="stroke:#000000;stroke-width:1;" x1="1067.8467" x2="1067.8467" y1="471.4531" y2="491.4531"/><polygon fill="#000000" points="1063.8467,481.4531,1067.8467,491.4531,1071.8467,481.4531,1067.8467,485.4531" style="stroke:#000000;stroke-width:1;"/><line style="stroke:#000000;stroke-width:1;" x1="867.3535" x2="857.3535" y1="415.4844" y2="415.4844"/><line style="stroke:#000000;stroke-width:1;" x1="857.3535" x2="857.3535" y1="415.4844" y2="437.4844"/><polygon fill="#000000" points="853.3535,427.4844,857.3535,437.4844,861.3535,427.4844,857.3535,431.4844" style="stroke:#000000;stroke-width:1;"/><line style="stroke:#000000;stroke-width:1;" x1="1057.8467" x2="1067.8467" y1="415.4844" y2="415.4844"/><line style="stroke:#000000;stroke-width:1;" x1="1067.8467" x2="1067.8467" y1="415.4844" y2="437.4844"/><polygon fill="#000000" points="1063.8467,427.4844,1067.8467,437.4844,1071.8467,427.4844,1067.8467,431.4844" style="stroke:#000000;stroke-width:1;"/><line style="stroke:#000000;stroke-width:1;" x1="857.3535" x2="857.3535" y1="525.4219" y2="543.4219"/><line style="stroke:#000000;stroke-width:1;" x1="857.3535" x2="950.6001" y1="543.4219" y2="543.4219"/><polygon fill="#000000" points="940.6001,539.4219,950.6001,543.4219,940.6001,547.4219,944.6001,543.4219" style="stroke:#000000;stroke-width:1;"/><line style="stroke:#000000;stroke-width:1;" x1="1067.8467" x2="1067.8467" y1="525.4219" y2="543.4219"/><line style="stroke:#000000;stroke-width:1;" x1="1067.8467" x2="974.6001" y1="543.4219" y2="543.4219"/><polygon fill="#000000" points="984.6001,539.4219,974.6001,543.4219,984.6001,547.4219,980.6001,543.4219" style="stroke:#000000;stroke-width:1;"/><line style="stroke:#000000;stroke-width:1;" x1="962.6001" x2="962.6001" y1="368.4844" y2="403.4844"/><polygon fill="#000000" points="958.6001,393.4844,962.6001,403.4844,966.6001,393.4844,962.6001,397.4844" style="stroke:#000000;stroke-width:1;"/><line style="stroke:#000000;stroke-width:1;" x1="1298.8926" x2="1298.8926" y1="368.4844" y2="403.4844"/><polygon fill="#000000" points="1294.8926,393.4844,1298.8926,403.4844,1302.8926,393.4844,1298.8926,397.4844" style="stroke:#000000;stroke-width:1;"/><line style="stroke:#000000;stroke-width:1;" x1="1044.5876" x2="962.6001" y1="312.5156" y2="312.5156"/><line style="stroke:#000000;stroke-width:1;" x1="962.6001" x2="962.6001" y1="312.5156" y2="334.5156"/><polygon fill="#000000" points="958.6001,324.5156,962.6001,334.5156,966.6001,324.5156,962.6001,328.5156" style="stroke:#000000;stroke-width:1;"/><line style="stroke:#000000;stroke-width:1;" x1="1216.905" x2="1298.8926" y1="312.5156" y2="312.5156"/><line style="stroke:#000000;stroke-width:1;" x1="1298.8926" x2="1298.8926" y1="312.5156" y2="334.5156"/><polygon fill="#000000" points="1294.8926,324.5156,1298.8926,334.5156,1302.8926,324.5156,1298.8926,328.5156" style="stroke:#000000;stroke-width:1;"/><line style="stroke:#000000;stroke-width:1;" x1="962.6001" x2="962.6001" y1="555.4219" y2="573.4219"/><line style="stroke:#000000;stroke-width:1;" x1="962.6001" x2="1118.7463" y1="573.4219" y2="573.4219"/><polygon fill="#000000" points="1108.7463,569.4219,1118.7463,573.4219,1108.7463,577.4219,1112.7463,573.4219" style="stroke:#000000;stroke-width:1;"/><line style="stroke:#000000;stroke-width:1;" x1="1298.8926" x2="1298.8926" y1="437.4531" y2="573.4219"/><line style="stroke:#000000;stroke-width:1;" x1="1298.8926" x2="1142.7463" y1="573.4219" y2="573.4219"/><polygon fill="#000000" points="1152.7463,569.4219,1142.7463,573.4219,1152.7463,577.4219,1148.7463,573.4219" style="stroke:#000000;stroke-width:1;"/><line style="stroke:#000000;stroke-width:1;" x1="1512.7334" x2="1512.7334" y1="334.4844" y2="369.4844"/><polygon fill="#000000" points="1508.7334,359.4844,1512.7334,369.4844,1516.7334,359.4844,1512.7334,363.4844" style="stroke:#000000;stroke-width:1;"/><line style="stroke:#000000;stroke-width:1;" x1="749.0671" x2="100.0322" y1="252.9063" y2="252.9063"/><line style="stroke:#000000;stroke-width:1;" x1="100.0322" x2="100.0322" y1="252.9063" y2="300.5156"/><polygon fill="#000000" points="96.0322,290.5156,100.0322,300.5156,104.0322,290.5156,100.0322,294.5156" style="stroke:#000000;stroke-width:1;"/><text fill="#000000" font-family="Verdana" font-size="11" lengthAdjust="spacing" textLength="161.8525" x="100.0322" y="280.519">Visualizar informações gerais</text><line style="stroke:#000000;stroke-width:1;" x1="867.3782" x2="1512.7334" y1="252.9063" y2="252.9063"/><line style="stroke:#000000;stroke-width:1;" x1="1512.7334" x2="1512.7334" y1="252.9063" y2="300.5156"/><polygon fill="#000000" points="1508.7334,290.5156,1512.7334,300.5156,1516.7334,290.5156,1512.7334,294.5156" style="stroke:#000000;stroke-width:1;"/><text fill="#000000" font-family="Verdana" font-size="11" lengthAdjust="spacing" textLength="70.689" x="1512.7334" y="280.519">Ver no mapa</text><line style="stroke:#000000;stroke-width:1;" x1="473.582" x2="473.582" y1="252.9063" y2="300.5156"/><polygon fill="#000000" points="469.582,290.5156,473.582,300.5156,477.582,290.5156,473.582,294.5156" style="stroke:#000000;stroke-width:1;"/><text fill="#000000" font-family="Verdana" font-size="11" lengthAdjust="spacing" textLength="151.6797" x="473.582" y="275.519">Explorar conteúdo histórico</text><line style="stroke:#000000;stroke-width:1;" x1="1130.7463" x2="1130.7463" y1="252.9063" y2="300.5156"/><polygon fill="#000000" points="1126.7463,290.5156,1130.7463,300.5156,1134.7463,290.5156,1130.7463,294.5156" style="stroke:#000000;stroke-width:1;"/><text fill="#000000" font-family="Verdana" font-size="11" lengthAdjust="spacing" textLength="143.709" x="1130.7463" y="275.519">Acessar visualização 360°</text><line style="stroke:#000000;stroke-width:1;" x1="100.0322" x2="100.0322" y1="403.4531" y2="607.4219"/><line style="stroke:#000000;stroke-width:1;" x1="100.0322" x2="796.2227" y1="607.4219" y2="607.4219"/><polygon fill="#000000" points="786.2227,603.4219,796.2227,607.4219,786.2227,611.4219,790.2227,607.4219" style="stroke:#000000;stroke-width:1;"/><line style="stroke:#000000;stroke-width:1;" x1="1512.7334" x2="1512.7334" y1="403.4531" y2="607.4219"/><line style="stroke:#000000;stroke-width:1;" x1="1512.7334" x2="820.2227" y1="607.4219" y2="607.4219"/><polygon fill="#000000" points="830.2227,603.4219,820.2227,607.4219,830.2227,611.4219,826.2227,607.4219" style="stroke:#000000;stroke-width:1;"/><line style="stroke:#000000;stroke-width:1;" x1="473.582" x2="473.582" y1="467.4531" y2="607.4219"/><polygon fill="#000000" points="469.582,597.4219,473.582,607.4219,477.582,597.4219,473.582,601.4219" style="stroke:#000000;stroke-width:1;"/><line style="stroke:#000000;stroke-width:1;" x1="1130.7463" x2="1130.7463" y1="585.4219" y2="607.4219"/><polygon fill="#000000" points="1126.7463,597.4219,1130.7463,607.4219,1134.7463,597.4219,1130.7463,601.4219" style="stroke:#000000;stroke-width:1;"/><line style="stroke:#000000;stroke-width:1;" x1="808.2227" x2="808.2227" y1="220.9063" y2="240.9063"/><polygon fill="#000000" points="804.2227,230.9063,808.2227,240.9063,812.2227,230.9063,808.2227,234.9063" style="stroke:#000000;stroke-width:1;"/><line style="stroke:#000000;stroke-width:1;" x1="1715.3623" x2="1715.3623" y1="220.9063" y2="240.9063"/><polygon fill="#000000" points="1711.3623,230.9063,1715.3623,240.9063,1719.3623,230.9063,1715.3623,234.9063" style="stroke:#000000;stroke-width:1;"/><line style="stroke:#000000;stroke-width:1;" x1="1195.1992" x2="808.2227" y1="164.9375" y2="164.9375"/><line style="stroke:#000000;stroke-width:1;" x1="808.2227" x2="808.2227" y1="164.9375" y2="186.9375"/><polygon fill="#000000" points="804.2227,176.9375,808.2227,186.9375,812.2227,176.9375,808.2227,180.9375" style="stroke:#000000;stroke-width:1;"/><line style="stroke:#000000;stroke-width:1;" x1="1358.3857" x2="1715.3623" y1="164.9375" y2="164.9375"/><line style="stroke:#000000;stroke-width:1;" x1="1715.3623" x2="1715.3623" y1="164.9375" y2="186.9375"/><polygon fill="#000000" points="1711.3623,176.9375,1715.3623,186.9375,1719.3623,176.9375,1715.3623,180.9375" style="stroke:#000000;stroke-width:1;"/><line style="stroke:#000000;stroke-width:1;" x1="808.2227" x2="808.2227" y1="619.4219" y2="637.4219"/><line style="stroke:#000000;stroke-width:1;" x1="808.2227" x2="1264.7925" y1="637.4219" y2="637.4219"/><polygon fill="#000000" points="1254.7925,633.4219,1264.7925,637.4219,1254.7925,641.4219,1258.7925,637.4219" style="stroke:#000000;stroke-width:1;"/><line style="stroke:#000000;stroke-width:1;" x1="1715.3623" x2="1715.3623" y1="274.875" y2="637.4219"/><line style="stroke:#000000;stroke-width:1;" x1="1715.3623" x2="1288.7925" y1="637.4219" y2="637.4219"/><polygon fill="#000000" points="1298.7925,633.4219,1288.7925,637.4219,1298.7925,641.4219,1294.7925,637.4219" style="stroke:#000000;stroke-width:1;"/><line style="stroke:#000000;stroke-width:1;" x1="1276.7925" x2="1276.7925" y1="132.9375" y2="152.9375"/><polygon fill="#000000" points="1272.7925,142.9375,1276.7925,152.9375,1280.7925,142.9375,1276.7925,146.9375" style="stroke:#000000;stroke-width:1;"/><line style="stroke:#000000;stroke-width:1;" x1="1276.7925" x2="1276.7925" y1="649.4219" y2="669.4219"/><polygon fill="#000000" points="1272.7925,659.4219,1276.7925,669.4219,1280.7925,659.4219,1276.7925,663.4219" style="stroke:#000000;stroke-width:1;"/><!--SRC=[XLGzYzn03EtzAvHkjmW40bVi5iUoN94YvE32zRDZxQx07Xbfx1pvDqUAL0U1a2Pb_CUY6Ni_pt2TiPwUtdkM_2xkiKPeAaUXqEWa5iNYQojapw1OeISE3XeEaI6sqhze9CzBGpqO1ci7tedWpW65BKlj-f_z7rJOzCzAtgaXQGkpJnV5iQLqUZi7Kn1WfbJF2u35tHDjIA1q9Hz8xA7aGOAn0UWtYduFivMn_U1KQxNjduNuDb7OK8JP8sdhAlhkv4hO3iMH9g1D-ymQnI0bgXSQ-3pNJONHBGV8A6ZFaaSe85JiCtN6BuyZxvwQYXERDwdO_pLXUyke_otcOHou7fmBL1JsBcct31iUPgMWrXEzK9AQ_Vwbm-ewi7EDaMeqNZJ7qLn6waOJM2LzmTGUMmxEQmpgTbXR12a531rNdV7ai7DlA6bxzBZog6fjtI7U8REFDn_-_PfFcCY5D_KVKvcYNOweJ3m0ippOOFrUMuybbJn5QyIhb86PP9DYfaIfu-MfV8zIKxJaWkkCTcBew-HESQC8fzZycQWpyYzR5FGeiELeQnFI3f8UYSTO9p_EU2rfTOVeR5v5TXDuQ5yyjBR89eBRACQUhqFJxfxhl_nsZwObCDIkSUCshZQ9uYhqSe2CwxysLp8UKk297q6UCfnaKLnwUIkeKqJHNkK1NQwQpK6w_PAu-Gy0]--></g></svg>